<?xml version="1.0" encoding="utf-8"?>
<!-- Generator: Adobe Illustrator 22.1.0, SVG Export Plug-In . SVG Version: 6.00 Build 0)  -->
<svg version="1.1" id="Layer_1" xmlns="http://www.w3.org/2000/svg" xmlns:xlink="http://www.w3.org/1999/xlink" x="0px" y="0px"
	 viewBox="0 0 1556.3 2180.1" style="enable-background:new 0 0 1556.3 2180.1;" xml:space="preserve">
<style type="text/css">
	.st0{fill:none;}
	.st1{fill:#2062AF;}
	.st2{fill:#3C9CD7;}
	.st3{fill:#FFFFFF;}
	.st4{fill:url(#SVGID_1_);}
	.st5{fill:url(#SVGID_2_);}
	.st6{fill:url(#SVGID_3_);}
	.st7{opacity:5.000000e-02;enable-background:new    ;}
	.st8{fill:url(#SVGID_4_);}
</style>
<path class="st0" d="M-471.8-159.9h2500v2500h-2500V-159.9z"/>
<path class="st1" d="M1410.4,2009.9l-632.3,170.2l-632.3-170.2L0,429.3h1556.3L1410.4,2009.9z"/>
<path class="st2" d="M778.2,557.3v1487.1l1.4,0.4l511.7-137.8l118.1-1349.7L778.2,557.3L778.2,557.3z"/>
<path d="M419.3,197v-94.1h137.3V0H316.4v291h240.2V197H419.3z M803.5,102.9h96V0H659.3v102.9c32.1,32.1,48.9,47.5,95.4,94
	c-27.2,0-95.4,0.1-95.4,0.1V291h240.2V197L803.5,102.9L803.5,102.9z M1144,102.9h96V0H999.7v102.9c32.1,32.1,48.9,47.5,95.4,94
	c-27.2,0-95.4,0.1-95.4,0.1V291H1240V197L1144,102.9L1144,102.9z"/>
<path class="st3" d="M777.6,952.5L325.1,1141l15,186.6l437.5-187.1l465.4-199l19.3-190.9L777.6,952.5L777.6,952.5z"/>
<linearGradient id="SVGID_1_" gradientUnits="userSpaceOnUse" x1="-556.6978" y1="-36.2085" x2="-556.6978" y2="-117.0095" gradientTransform="matrix(4.6418 0 0 4.6418 3135.4158 1495.6466)">
	<stop  offset="0.387" style="stop-color:#D1D3D4;stop-opacity:0"/>
	<stop  offset="1" style="stop-color:#D1D3D4"/>
</linearGradient>
<path class="st4" d="M325.1,1141l15,186.6l437.5-187.1v-188L325.1,1141z"/>
<linearGradient id="SVGID_2_" gradientUnits="userSpaceOnUse" x1="-455.7408" y1="-76.5095" x2="-455.7408" y2="-160.4985" gradientTransform="matrix(4.6418 0 0 4.6418 3135.4158 1495.6466)">
	<stop  offset="0.387" style="stop-color:#D1D3D4;stop-opacity:0"/>
	<stop  offset="1" style="stop-color:#D1D3D4"/>
</linearGradient>
<path class="st5" d="M1262.3,750.6L777.6,952.5v188l465.4-199L1262.3,750.6z"/>
<linearGradient id="SVGID_3_" gradientUnits="userSpaceOnUse" x1="-605.2928" y1="-0.1705" x2="-411.2278" y2="-0.1705" gradientTransform="matrix(4.6418 0 0 4.6418 3135.4158 1495.6466)">
	<stop  offset="0" style="stop-color:#E8E7E5"/>
	<stop  offset="1" style="stop-color:#FFFFFF"/>
</linearGradient>
<path class="st6" d="M325.8,1141l15,186.6l671.3,2.1l-15,248.8l-220.9,62.2l-212.4-53.6L551,1432.7H353.6l25.7,298.1l398.9,118
	l396.8-115.8l51.5-591.9H325.8z"/>
<path class="st7" d="M777.6,1141H325.1l15,186.6l437.5,1.4L777.6,1141L777.6,1141z M777.6,1640.1l-2.1,0.6l-212.3-53.6l-12.9-154.4
	H353l25.7,298.1l398.9,118V1640.1z"/>
<linearGradient id="SVGID_4_" gradientUnits="userSpaceOnUse" x1="-614.2219" y1="-139.9375" x2="-403.5298" y2="-139.9375" gradientTransform="matrix(4.6418 0 0 4.6418 3135.4158 1495.6466)">
	<stop  offset="0" style="stop-color:#E8E7E5"/>
	<stop  offset="1" style="stop-color:#FFFFFF"/>
</linearGradient>
<path class="st8" d="M284.3,750.6h978L1243,941.5H307.9L284.3,750.6L284.3,750.6z"/>
<path class="st7" d="M777.6,750.6H284.3l23.6,190.9h469.7L777.6,750.6L777.6,750.6z"/>
</svg>
