<?xml version="1.0" encoding="utf-8"?>
<!-- Generator: Adobe Illustrator 22.1.0, SVG Export Plug-In . SVG Version: 6.00 Build 0)  -->
<svg version="1.1" id="Layer_1" xmlns="http://www.w3.org/2000/svg" xmlns:xlink="http://www.w3.org/1999/xlink" x="0px" y="0px"
	 viewBox="0 0 2500 1500" style="enable-background:new 0 0 2500 1500;" xml:space="preserve">
<style type="text/css">
	.st0{fill:#F9DC3E;}
</style>
<path d="M1714.6,347.9l-0.6-5.4l-8.7,0.7l0.6,5.4C1705.9,348.6,1714.6,347.9,1714.6,347.9z M1772.9,488.2l0.2,3l6.1-0.6
	c-0.2-1.8,0.6-4.8,1.8-8.5l-0.6-5.4C1777.9,477,1775.3,480.9,1772.9,488.2L1772.9,488.2z M1545.2,664.9c-0.4-5-15.9-24.4-46.5-58.5
	c-0.6-6.3,10-15.7,31.6-28.1l61.7-53.7c13.8-17.5,22-46,24.4-85.5l-0.7-9c-2.4-27.3-22.2-49.3-59.6-66.1
	c-22.2-15-62-23.3-119.6-24.7c-47.6,4.1-109.9,21-186.5,51.1c-21,15.1-45,30.3-72,45.4l0.4,4.6c1.7-0.2,4.2-1.1,7.2-3.1
	c3.1-0.4,5,1.1,5.2,4.1l4.6-2.4l2.2-0.2l0.2,2c0.2,2.4-16.4,15.5-50,39l2.6,4.8l-2.2,0.2l-5.5-2c0.2,1.7-2.2,2.8-6.8,3.1l0.2,2
	l5.4,6.6c-1.7,0.2-4.2-0.6-7.8-1.8c-7.8,0.7-15.3,4.8-22.9,12.6l3.1-13.7c11.3-48.6,19-91.6,23.1-128.9l-0.6-2.4
	c-7.8-5-15.3-12-22.3-20.9c0.2-5.7,0.2-9,0-9.8l-0.6-2l-2.2,0.6c-24.4,36.6-71.3,99-140.9,187.2c-53,62.8-80.3,97.7-82,104.7
	c-21.6,22.3-31.9,35.8-30.8,40.4c-5.7,3.7-8.1,7.4-7.2,11.4c-1.7,0.4-2.8-0.2-3.1-1.8c-9.2,15-22.9,24.6-41.2,28.8l-19.2,4.4
	c-2.6,0.6-3.9,2.4-3.7,5.5l0.6,2.4l7.2-1.7l0.6,2l-16.3,6.3l-28.8,6.6l-15.1,0.9c-2.2,2.2,12-0.2,6.5,1.1l-18.8,4.4
	c-11.5,2.6-17.7,1.7-18.8-3l-2.2,0.6c0.4,2,0.6,3.5,0.2,4.8l-1.1-4.6l-15.1,3.5c-1.1-7-21.6-32.5-61.3-76.4
	c-0.7-8.5,13.3-20.9,41.9-36.9l80.9-71.1c18.1-23.3,28.8-60.6,32.3-111.9l-1.1-12c-3.1-36.2-29.4-65.4-78.7-87.9
	c-29.2-19.8-81.6-30.3-157.3-31.9c-62.8,5.4-144.8,27.7-245.6,66.7c-27.7,20.1-59.3,40.1-94.7,59.8l0.6,6.3c2.4-0.2,5.5-1.5,9.4-3.7
	c4.1-0.4,6.3,1.5,6.7,5.2l6.3-3.5l3.1-0.2l0.2,3c0.2,3-21.8,20.1-66.3,51.5l3.5,5.5l-3.1,0.2l-6.8-2.4c0.2,1.8-3,3.1-9.4,3.7
	l0.4,3.3l7.4,8.1c-2.4,0.2-5.7-0.6-10-2c-14.4,1.3-28.4,11.6-42.3,31.2l3.5,5.5c12-11.1,19-16.6,21-16.8l0.7,9
	c-2,0.2-5.2,1.5-9.4,3.7l7.6,11.5c14.3-15.5,30.5-29,48.2-40.4c8.7,2.2,13.3,5,13.5,7.9l6.6-0.6c47.6-35.3,94.7-60.7,141.4-76.4
	l0.6,6.3c-8.7,12.9-14.6,19.6-17.7,19.9c0.4,4.4,1.8,8.3,4.6,11.6c0.7,7.9-20.5,61.5-63.5,160.4C156.9,868.6,75,1038.8,8.3,1148.9
	c0.2,2.2,1.5,5.2,3.9,8.9c16.4-3.9,26.8-7.9,31.2-11.8l3.5-0.4l0.6,6.3l6.1-0.6l6.3-3.5c0.2,1.8,2.2,2.8,6.5,2.4l0.6,6.3
	c0.6,6.1-3,15.3-10.3,28.1c-6.6,7.6-13.8,23.4-21.4,47.6l0.2,3l6.1-0.6c26.6-29.7,46.7-58.9,60.6-87.3c77.5-22.7,136.6-45,177.6-67
	c41.2-3.5,72.6-14.4,94-32.3l-0.4-3.3l-15.5,4.6l-3.5,0.4l-0.4-3.3c30.3-4.6,51.1-11.3,62.8-20.5c58.9-45.4,103.4-77.5,133.5-96.6
	c61.9-45.4,102.1-89.7,120.4-132.8c3.5-0.8,6.9-1.6,10.3-2.4c8.7-0.4,13.5-0.6,14.8-0.9c-0.4-1.7,0.4-2.6,2-3
	c13.8-1.5,7.2,0.9,16.1-1.1l23.3-5.4c-1.5,0.4-2,1.1-1.7,2.6l3.5-2.2c-0.7,0-1.3-0.2-1.8-0.4l3.9-0.9l-1.8,1.1
	c2.6,0.4,5.4,0.2,8.5-0.6l1.7,6.8L643.3,958.3l-23.5,29.4l-11.4,38.4l2.2-0.6l11.4-4.8l-3.7,15l1.1,4.4l3.1,3.9
	c-1.5,0.4-2,1.3-1.7,3l0.6,2.4l4.8-1.1c7-6.1,10-11.6,8.9-16.6c7.6,1.3,12.6,1.8,15.1,1.1l0.6,2.4c-4.6,1.1-7,4.8-7.4,11.1l0.6,2.4
	l2.6-0.6c38.4-41.9,132.6-185.4,208.1-282.7c-2.4-10.5,36.9-25.1,118.2-43.9l2.6-0.6c3,12.7-3.3,43.6-18.8,92.5
	c-10,29.5-14.8,45.8-14,48.4c-12.9,39.3-19,60.6-18.3,63.9l-28.8,94.3c-18.6,48.4-32.9,99.2-42.8,152.7c1.7-0.4,4.2-0.2,7.9,0.7
	l4.1-3.5c0.4,1.7,1.5,2.2,3.1,1.8l-1.7-6.8l12.6-0.4c3.7-0.9,6.8-5.5,9.4-14c-0.6-12.7,2-19.6,7.8-21c7.8-30.3,12.6-45.4,14.2-46
	c7.2-30.1,12.6-47.3,16.1-51.5c10.9-39.1,18.8-59.3,24-60.6l1.1,4.8l-7.9,20.5c-13.8,61.5-27.9,110-42.1,145.7l4.1,17.7l2.6-0.6
	c34.3-73.9,83.8-220.1,148.3-438.7c1.9-19.2,11.1-34.2,27.5-44.7l-3.7-3.9l-0.6-2c7.4-1.7,12.6-4.6,15.5-8.7
	c-0.4-1.7-6.8-4.1-19.4-7.4l32.1-137.7c7-6.3,11.1-9.6,12.4-9.6l0.6,7c-1.7,0.2-4.2,1.1-7.2,3.1l6.1,8.7c11.1-12,23.1-22.3,36.2-31
	c6.6,1.8,10,4.1,10.3,6.3l4.8-0.4c36.6-26.8,72.4-46,107.6-57.6l0.4,4.6c-6.5,9.8-10.9,14.8-13.3,15c0.4,3.3,1.3,6.3,3,8.9
	c0.6,6.1-15.3,46.7-47.8,122c-74.2,174.5-136.5,303.5-187,387.4c0.2,1.7,1.3,3.9,3.3,6.8c12.4-3,20.3-6.1,23.4-9l2.2-0.2l0.4,4.6
	l5.2-0.4l4.6-2.4c0.2,1.3,1.8,1.9,5,1.7l0.4,5c0.4,4.4-2.2,11.4-7.9,21c-5.4,5.7-10.9,17.7-16.8,36l0.2,2.4l4.8-0.4
	c20.1-22.5,35.4-44.7,46-66.5c58.9-17.4,103.8-34.2,134.8-50.8c31.6-2.8,55.4-10.9,71.6-24.6l-0.2-2.4l-12,3.5l-2.6,0.2l-0.2-2.4
	c22.9-3.3,39-8.5,47.6-15.3c44.7-34.3,78.5-58.9,101.4-73.3C1516.1,762.6,1549.3,712.8,1545.2,664.9L1545.2,664.9z M1533.1,668.1
	l1.7,18.6c-2.2,4.6-4.6,7-6.8,7.2l-2.8-31.8C1530.3,664,1532.9,665.9,1533.1,668.1L1533.1,668.1z M135,517.8l-3.1,0.2l-0.6-5.7
	l12.7-1.1l0.2,3C142.2,514.3,139,515.4,135,517.8L135,517.8z M72.7,1140.2c-7.4-3.3-14-4.6-19.8-4.1l-0.7-9
	c-0.4-3.5,1.7-5.9,6.1-6.8c4.1-0.4,6.5,2.6,6.8,8.5c10.7-13.1,16.6-19.8,17.7-19.9l6.8,2.8C87.5,1130,81.8,1139.5,72.7,1140.2z
	 M737.6,444.7c-3.1,0.4-9.4-9.4-18.5-28.8l-0.6-5.7c5.9-0.6,12,9,18.5,28.8L737.6,444.7z M728.8,375.8l-2.6,6.1l-90.3-37.7
	C696.1,346.3,727.1,356.8,728.8,375.8z M347.5,703.2l-12.7,1.1l-0.6-5.7l12.7-1.1L347.5,703.2z M337.1,506.5l3.1-0.2l0.7,9
	c-3,0.2-6.8,4.6-11.6,13.1l-0.6-6.3C334.6,515.4,337.5,510.2,337.1,506.5L337.1,506.5z M310.4,569.7l1.1,12l-3.1,0.2l-1.1-12
	L310.4,569.7z M296.3,592.2l6.1-0.6c-0.6,10-3.3,15.3-8.3,15.7l-3.1,0.2C294.9,600.9,296.7,595.7,296.3,592.2z M285.8,623.6l3.5-0.4
	l0.2,3l-5.7,9.6l-6.1,0.6l-0.2-3C283.6,632.8,286.4,629.7,285.8,623.6L285.8,623.6z M275.5,651.8l-1.8,15.1l-3.1,0.2l-1.3-15
	L275.5,651.8z M171.9,946.3c-4.1,20.7-8.5,31.2-13.1,31.6l-0.2-3C157.5,964.8,161.9,955.2,171.9,946.3L171.9,946.3z M152.9,987.5
	l0.2,3c0.4,4.1-1.5,6.5-5.5,6.6l-0.2-3C147,990.6,148.8,988.4,152.9,987.5z M147.3,1073l9.6-0.9l0.4,3.3c-2.4,0.2-5.5,1.5-9.4,3.7
	l-6.1,0.6C141.4,1076.5,143.5,1074.1,147.3,1073L147.3,1073L147.3,1073z M420.6,988.6c-53.9,26.6-85.7,44.7-95.1,54.1
	c-58.3,20.3-87.3,32.9-86.8,37.9c-51.9,20.5-86,35.6-102.5,45.1c-3.9,0.4-9.4-1.1-16.8-4.4c-0.9-10.5,3.9-19,14-25.8
	c9-0.7,17.7,0.6,26,4.1c9.6-5,26.4-10.5,50.2-16.4l-0.6-6.3l-19.2,1.7c2.4-3.3,20.9-12,55.6-26l9.6-0.9l0.2,3
	c-16.4,1.5-25.5,6.3-27.5,15c0.4,3.9,2.6,5.5,6.7,5.2c12.4-7.8,18.5-12.4,18.3-13.7c23.5-4.4,88.3-38.4,194.4-101.7l0.6,5.7
	C447.9,967.6,438.9,975.3,420.6,988.6L420.6,988.6z M257.8,1042.1c15.5-1.3,28.8-7.6,39.9-18.5c4.4-0.4,6.8,1.3,7,5.2
	c-7.6,0.7-22.2,7-43.4,19.2l-3.1,0.2L257.8,1042.1L257.8,1042.1z M520.5,840.3l-81.4,64.4c-60.6,39.7-93.1,59.6-97.7,60
	c-96.4,53-156.4,80.5-179.7,82.5l-3.5,0.4c3-10.9,45.8-98.6,128.9-263.7c36.6-3.1,94.2-20.1,172.6-51.1l19.2-1.7
	c39.7-3.5,69.4,4.2,89,22.7l1.1,12C554.3,808.4,538,833.1,520.5,840.3L520.5,840.3z M361.3,750.8l13.1-1.1l0.2,3l-13.1,1.1
	L361.3,750.8z M545.4,719.6l9.6-0.9c8.9,4.2,13.5,7.9,13.8,11.3l0.2,3C560.6,733.6,552.6,729.2,545.4,719.6z M571.5,571.3
	c-8.5,10.2-31.8,27.5-69.8,51.9c-12.6,1.1-59.3,19.2-140.1,54.7c-4-1.8-8.5-2.6-12.9-2.2l-0.6-5.7c-0.9-11.6,4.2-26.2,15.7-43.9
	c6.3-33.2,13.1-52.3,20.7-56.9l67.4-151.6c-0.7-9.4,13.7-16.6,43.2-21.6l9.6-0.9l0.7,8.7c29-4.4,47.1-7,54.1-7.6
	c53.5-4.6,81.4,6.3,83.6,32.3l6.1-0.6l-1.3-15.3l6.6-0.6c15.7,8.7,24.2,19.2,25.3,31.6c0.7,8.5-3.9,19-13.7,31.6
	c-4.1,0.4-6.5-2.6-6.8-8.5l-6.6,0.6l-1.5,18.5c-27.1,40.6-46.9,61.5-59.1,62.6C581.1,563.6,574.2,571.1,571.5,571.3z M612.8,677.5
	c-5.5-3.7-10-5.4-13.3-5.2l-0.7-9l6.1-0.6l13.5,7.9C618.9,674.9,617.1,677.1,612.8,677.5L612.8,677.5z M655.6,728.3
	c5.9,2.4,9.4,5,10.2,7.4l-3,0.7l0.2,0.2c-0.6,0-1.3,0.2-1.9,0.4l-4.4,3.5L655.6,728.3z M659.7,753.7l-0.6-2.4l7.8-1.8l0.6,2.4
	L659.7,753.7z M678.4,774.6c7.9-1.3,11.8-1.8,26.6-5.2l0.6,2.4l-28.1,6.5C677.8,777,678.2,775.7,678.4,774.6z M705.7,786.2
	c-11.8,1.1-9.2-0.4-28.1,3.9l-0.6-2.4l23.5-7.6l11.3-2.6l1.1,4.4C707.9,783.1,711.6,783.1,705.7,786.2z M730.6,780.3
	c-2.8,0.7-5-0.6-6.3-3.7l7.2-1.7c3.1-0.7,5.2,0.6,5.9,3.7L730.6,780.3L730.6,780.3z M798.2,707.6l-0.6-2.4l11.6-2.8l1.1,4.4
	L798.2,707.6z M870.4,1150.3c0.7-3.3,0.9-5.7,0.6-7.4l2.6-0.6c3.1-0.7,5,0.4,5.7,3.3l0.6,2.4L870.4,1150.3L870.4,1150.3z M921,726.6
	l-5.2-0.9c-8.3,3.3-15.3,5.7-21,7l-4.8,1.1c-2.8,0.7-5-0.4-6.1-3.3l33.8-7.8l11.1-5.2l3.7,4.2C927.1,722.9,923.2,724.6,921,726.6
	L921,726.6z M947,718.3l-0.6-2.4c1.7-0.4,3.9-1.7,6.3-4.1l24-5.5l0.6,2.4C964.6,711.8,954.4,715,947,718.3L947,718.3z M950.7,669.7
	c-1.7,0.4-3.9,1.9-6.7,4.1c-0.4-1.7-3.7-1.7-10-0.2c-1.1-4.6,16.6-11.1,53.4-19.6l5.2-1.1l1.1,4.4
	C967.9,664.9,953.5,669.2,950.7,669.7L950.7,669.7z M1015.3,599.9c-2.6,29.4-12.9,46-31.2,50.2l-0.6-2.4l-16.3,6.3l-7.2,1.7
	c-3.7,0.9-7,0.7-10-0.2l-1.5-6.5c-0.6-2.4,22.9-34.9,70.5-97.3l5.5,0.9C1026.8,561.2,1023.6,576.9,1015.3,599.9L1015.3,599.9z
	 M1129.6,502.1l-2.2,0.2l-0.4-4.6l9.6-0.9l0.2,2.4C1135.2,499.5,1132.8,500.4,1129.6,502.1L1129.6,502.1z M1082.5,974.9
	c-5.5-2.6-10.5-3.7-14.8-3.3l-0.6-7c-0.2-2.4,1.3-4.1,4.4-5c3.1-0.4,5,1.8,5.4,6.7c7.9-10.2,12.4-15.3,13.3-15.3l5,2
	C1093.4,967,1089.2,974.4,1082.5,974.9L1082.5,974.9z M1587.3,446.9c-2.4,0.2-7-7.2-14.2-22.2l-0.4-4.6c4.6-0.4,9.4,6.8,14.2,21.6
	L1587.3,446.9L1587.3,446.9z M1580.7,394.1l-2.2,4.8l-68.3-28.6C1555.8,371.7,1579.4,379.7,1580.7,394.1z M1291,642.8l-9.6,0.9
	l-0.4-4.6l9.6-0.7L1291,642.8L1291,642.8z M1283.1,493.4l2.6-0.2l0.6,7c-2.4,0.2-5.4,3.5-8.9,10l-0.4-4.6
	C1281.2,500.2,1283.2,496.2,1283.1,493.4L1283.1,493.4z M1262.9,541.4l0.7,9l-2.6,0.2l-0.7-9L1262.9,541.4z M1252,558.6l4.8-0.4
	c-0.6,7.8-2.6,11.8-6.1,12.2l-2.6,0.2C1250.9,565.4,1252.2,561.4,1252,558.6L1252,558.6z M1244.3,582.2l2.2-0.2l0.2,2.4l-4.2,7.4
	l-4.8,0.4l-0.2-2.4C1242.4,589.4,1244.6,586.8,1244.3,582.2L1244.3,582.2z M1236.5,603.6l-1.7,11.8l-2.2,0.2l-0.9-11.6L1236.5,603.6
	L1236.5,603.6z M1157.7,827.6c-3.1,15.5-6.5,23.5-10,23.8l-0.2-2C1147,841.6,1150.3,834.2,1157.7,827.6z M1143.1,858.8l0.2,2
	c0.4,3.3-1.1,5.2-4.4,5.4l-0.2-2.4C1138.5,861.4,1140,859.7,1143.1,858.8L1143.1,858.8z M1139,923.8l7.4-0.6l0.2,2.4
	c-1.7,0.2-4.2,1.1-7.2,2.8l-4.8,0.4C1134.4,926.2,1135.9,924.5,1139,923.8L1139,923.8z M1346.4,859.7
	c-40.6,20.1-64.8,33.8-72.4,40.8c-44.3,15.5-66.3,25.1-65.9,29c-39.3,15.7-65.2,27-77.4,34.2c-3,0.2-7.2-0.9-12.7-3.5
	c-0.7-7.9,3-14.4,10.7-19.2c7-0.6,13.7,0.4,19.8,3c7.4-3.7,20.1-7.8,38.2-12.4l-0.4-4.6l-15.1,1.1c1.9-2.6,16.1-9.2,42.5-19.9
	l7.4-0.6l0.2,2c-12.6,1.1-19.6,4.8-21,11.4c0.2,3,2,4.4,5.2,4.1c9.2-6.1,13.7-9.6,13.7-10.7c17.7-3.1,66.8-29,147.5-77.4l0.4,4.6
	C1367.1,843.7,1360.2,849.6,1346.4,859.7L1346.4,859.7z M1222.7,900.3c12-1.1,22.2-5.7,30.6-13.8c3.1-0.4,5,1.1,5.2,4.1
	c-5.5,0.6-16.4,5.2-32.9,14l-2.6,0.2L1222.7,900.3L1222.7,900.3z M1422.5,746.9l-61.5,49.5c-46,30.1-70.9,45.2-74.8,45.6
	c-73.1,40.2-118.5,61.1-136.4,62.6l-2.6,0.2c2.2-8.3,34.9-75,98-200.2c27.5-2.4,71.1-15.5,130.9-39.1l15-1.3
	c30.1-2.6,52.6,3.3,67.4,17.5l0.7,9C1447.9,722.5,1435.7,741.2,1422.5,746.9L1422.5,746.9z M1301.7,679l9.6-0.9l0.2,2.4l-9.6,0.9
	L1301.7,679z M1441.5,655.1l7.4-0.6c6.8,3.3,10.3,6.3,10.5,8.7l0.2,2C1453.1,665.9,1447,662.5,1441.5,655.1z M1460.9,542.7
	c-6.5,7.8-24,21-52.6,39.5c-9.6,0.9-45.1,14.6-106.4,41.2c-3-1.1-6.3-1.5-9.8-1.3l-0.4-4.6c-0.7-8.9,3.1-19.9,11.6-33.4
	c4.8-25.5,10.2-39.7,15.7-43l51.5-115.2c-0.6-6.8,10.3-12.4,32.5-16.6l7.4-0.6l0.6,7c21.8-3.5,35.4-5.5,41-6.1
	c40.6-3.5,61.9,4.6,63.5,24.6l4.8-0.4l-0.9-11.1l4.8-0.4c11.8,6.5,18.1,14.2,18.8,23.4c0.6,6.7-2.8,14.8-9.8,24.2
	c-3.1,0.4-5-1.8-5.4-6.6l-4.8,0.4l-1.5,13.8c-20.5,31.2-35.4,47.3-44.9,48C1468.4,536.8,1463.3,542.5,1460.9,542.7L1460.9,542.7z
	 M1482.5,619.5l-0.6-7l4.8-0.4l10.3,6.3c0.2,3-1.3,4.6-4.4,5C1488.2,620.6,1484.9,619.3,1482.5,619.5L1482.5,619.5z M623,1068
	l-4.8,1.1l-4.1,3.5c0.7,3,2.6,4.1,5.7,3.3c3.1-0.7,4.4-2.6,3.7-5.5L623,1068z M604.7,1031.6l0.6,2.4c3.1-0.7,4.4-2.6,3.7-5.5
	l-0.6-2.4C605.4,1026.8,604.1,1028.7,604.7,1031.6L604.7,1031.6z M734.7,722.4l5.5-1.3l-1.1-4.8l-5.5,1.3L734.7,722.4L734.7,722.4z
	 M2410.1,863.1c-56.1,12.6-63.1,10.3-75,11.3l0.4,4.6l5.2-0.4l2.8-0.2l-0.7-0.6l6.1-2.4c55.6-6.1,62-3.9,61.5-10.2L2410.1,863.1z
	 M2107.8,903.1l0.4,4.6h0.7l-0.4-4.6H2107.8L2107.8,903.1z M2073.1,781.4l-5-1.7c-4.1,10.9-6.1,17.4-5.9,19.2l0.2,2
	C2066.3,800.8,2069.8,794.2,2073.1,781.4z M2421.5,862.1l0.4,4.6l8.1,1.5l-0.4-4.6L2421.5,862.1L2421.5,862.1z M2039.5,908.8
	l-12.6-1.5l-2.2,4.8l0.2,2.4l74.8-6.3l-0.4-4.6L2039.5,908.8L2039.5,908.8z M2005.5,745.1l-0.2-2.4l-2.6,0.2l-4.6,3l2.6,4.4
	C2004.2,749.9,2005.9,748.2,2005.5,745.1L2005.5,745.1z M2457,828.2l3.5-0.4c2-0.2,3-1.8,2.8-4.8l-2-4.4c-12.7,1.1-18.6,1.7-29,7.4
	l-0.2-2.4l-15.3,1.5c-0.4-4.6-1.7-7-3.7-6.8l-7.9,0.7c-9.2,0.7-13.7,0.4-18.3,3.9c-0.2-1.7-0.7-2.4-1.7-2.4l-8.9,0.7l-5.2,3
	c-0.2-1.7-0.7-2.4-1.7-2.4l-3.1,2.8l-0.2-2.4l-12.4-0.9l-3,0.2l0.4,4.6l6.3,1.7l5.9-0.4c2,1.3,4.2,1.7,6.8,1.5l5.2-2.6l0.2,2
	c-29,7.2-28.8,5.9-48.7,9.2c-2.2-1.5-3.9-2.2-5-2l-0.4,0.4c-2.2-0.2-3.5-1.7-3.7-4.1l10.3-1.3c0.7,0,1.3,0.7,7,1.8
	c8.3-4.1,8.7-5.7,13.1-6.1l-0.4-4.6c-28.4,5.5-17,1.9-52.6,5l-1.7,0.2l-0.4-4.6c45.8-5.5,30.5-2.4,46.2-6.8c0.2,1.7,0.7,2.4,1.7,2.4
	c1.7-1.7,3.9-2.8,6.3-3.1l3.1-0.2c16.1-1.3,21.4,1.8,53.2-7l0.2,2l5.2-2.6l4.8-0.4c-0.4-4.6,6.6-5.4,9-5.5l-0.4-5
	c-55.8,11.3-70.3,8.1-85.9,12.6l-0.2-2c-14.6,2.6-15.1,1.5-18.8,1.7c-1.1,0.2-2.8,1.1-4.6,3c-0.2-1.7-0.7-2.4-1.8-2.4
	c-0.6,0-0.7,0.2-0.9,0.2l-47.3,7.8c-0.2-1.3-0.7-2-1.8-1.8c-24.6,5.2-17.9,6.1-50.8,9c-1.5,0.2-3.5,0.9-6.1,2.6
	c-0.2-1.3-0.9-2-2.6-1.9l-20.1,1.7l-13.5,3.3c-0.2-1.3-0.9-2-2.6-1.8c-7.6,2-14.2,3.3-19.6,3.7h-0.4c-3.3,0.4,1.7-0.9-0.9-2
	l-4.1,2.4c-5.9,0.6-2.8-0.4-23.1-0.2c-35.6,4.4-31.8,5-35.6,5.2l-13.3-0.9c0.2,1.3-0.6,2.2-2,2.2c-15.1-2-22.9-4.4-23.1-7.2
	c2-14.4,5.5-21.8,10.5-22.2l2.6-0.2l-2.2,4.8l2.6-0.2c4.8-2.6,7-5,6.8-7.2l-0.4-5l-4.8,0.4l-0.4-4.6c-0.4-3.5,0.2-6.7,1.5-9.2
	l10.9-17.5l0.4,4.6l5.2-0.4l-0.4-4.6l-3-4.2c3.9-3.3,6.8-5.2,9.2-5.4l-0.2-2.4l-7,0.6l-0.6-7c14-29.2,20.7-46.2,20.3-51l5,2
	c3.1-0.2,4.6-2,4.4-5.4l-4.8,0.4l-0.2-2c-0.3-3.4,0.3-6.8,1.8-9.8c7.6-7.9,11.1-15.9,10.3-24.2c1.5-0.2,2.2,0.6,2.4,2.2
	c6.5-3.7,11.4-13.5,15.1-29.7c11.5-20.7,27.7-62,48.9-123.9c40.6-109.3,39-120.9,44.7-146.8l-4.8,0.4c0.4,3.3-0.4,6.5-1.8,9.4
	c-3.3-1.3-5.9-2-7.8-1.8l-0.2-2c-0.7-9.4,3.1-20.7,12-34l2.2-0.2l4.1,15.9l4.8-0.4c-0.2-1.1,1.1-7.4,3.7-19c-0.2-2.4-2-3.9-5.7-4.1
	l-4.6,3c-0.4-3.3-0.2-12,0.4-25.8l-2.4,0.2c-4.1-4.1-6.1-7.4-6.3-10.2l-26.4,2.6c-0.2-1.8-1.1-4.6-3-8.1c-0.2-2.4,5.7-4.8,17.9-7.2
	l5.4,2l5-3c0.2,1.7,1.1,2.4,2.9,2.2l5-3c0.2,1.7,1.1,2.4,3,2.2l2.4-0.2l-0.4-5.4c-3.7,0.4-13.5,0.4-29-0.2l-5,3.3l-0.2-3
	c-123.9,10.2-194.2,15.9-211,17.5c-2.2,0.2-10.9,0-26.2-0.4c0.2,2-1.7,3.1-5.4,3.5l-5.4-2.4l-18.1,4.6c-4.2,0.4-11.4,0.2-21.4-0.9
	c-2.8,2.2-6.1,3.5-10.2,3.9c-2.2,0.2,26.4-1.5,53-3.3c-2.8,2.2-7,3.5-12.9,4.1c-4.1,0.4-7.6-0.2-10.5-1.8
	c-4.1,1.8-17.2,4.8-39.1,9.2l-5.4-2l-86.4,13.3c-3.3-1.7-7.2-2.2-11.6-1.8c-4.6,0.4-12.4,2-23.1,5l-41.7,17.4l3.1,5.2
	c2-0.2,5-1.3,8.5-3.3l14.8,1.3l-1.9,13.8c-13.7,6.1-21.6,15.1-23.8,26.6c-20.5,9-30.6,15.5-30.6,19.4l0.2,2.4l3.1-0.2l5.5-3l6.5,7.8
	l0.9,10.7c0.4,3.3-34.2,75.9-103.2,217.7c-59.8,136.6-91.2,211.4-94.2,224.9c-20.5,5.7-32.3,14-35.8,25.1c0.4,3.5,6.5,5.9,18.3,6.8
	l0.6,5.4l-5.4,8.9l0.9,10.7c0.6,5.5,15.5,9.8,44.9,12.7c-0.2-1.8,0.7-3,2.8-3.1c0.6,6.6-1.3,19.6-5.5,38.8l3.1-0.2
	c12.2-16.6,17.9-28.1,17.4-34.3l2.6-0.2c3-0.2,6.1,3.1,9.8,10.3c-3.7,1.5-16.6,30.8-38.8,88.3l3.1,5.2l3.1-0.2
	c27.1-68.7,44.1-106.7,51.1-113.9c35.6-3.1,97.3-9.4,184.8-18.8l5.5-3.3c0.2,1.8,1.3,2.8,3.3,2.6l5.7-0.6l5.5-3.3
	c0.2,1.8,1.3,2.8,3.3,2.6l66.3-5.7c17.5-1.5,25.8-6.8,25.1-15.9c-0.2-2.4,10.2-5.2,31-8.1c2-0.2,5,0.4,9,1.7
	c-0.2-1.7,10.3-3.3,31.4-5.2c0.6-11.1,4.1-17,10.3-17.5l-0.6-5.4c-5.9,0.6-12.6,2-20.3,4.6c-13.8-0.7-22.7-1.8-26.4-3.1
	c-3.7,2-6.5,3.1-8.5,3.3l-46.2,1.5l-5.5,3c-0.2-1.7-1.3-2.4-3.3-2.2l-2.6,0.2l-5.9,3c-0.2-1.7-5-3-14.6-4.2l-5.9,3.5l-11.5,0.9
	l-0.2-3c59.5-6.5,88.8-14.6,88.1-24.2c3.9-0.4,5.9,1.5,6.3,5.4l17.4-4.4l-0.6-5.4l-142.4,3.9c0.2,1.9-0.7,3-2.8,3.1l-17.4-1.5
	c-4.4,0.4-8.1,1.7-11.1,3.9l-6.5-2.4c-17.9,1.5-31.2,3.7-40.1,6.5c-12.2-0.9-25.7-0.7-40.6,0.6l-31.9,2.8l-14.8-1.7
	c-0.7-9.4,17.5-55.8,55.2-138.8c10.9-28.1,20.9-45.6,30.5-52.3c2-0.2,5,0.6,9,2.2l22.7-7.8l11.6,1.8c19.6-1.7,42.3-7.2,68.3-16.8
	c6.5-0.6,11.3-0.2,14.8,1.3l17.4-4.1l51.7-4.4c22-1.8,45.8-6.7,71.6-14.6l-0.6-5.4c-9.6,0.9-14.6-0.7-15-4.6c-0.6-7.2-7.6-10.2-21-9
	l-0.6-5.4l14.2-4.1l37.3-3.1l-0.6-5.4c-1.5,0.2-9,0-23.1-0.6l-0.6-5.7l14.4-1.3c3.9-0.4,5.5-2.2,5.2-5.9c-19.4,0.6-29.2-0.4-29.4-3
	c-135.2,6.6-202.9,7.9-203.3,3.7c-2,0.2-4.8,1.5-8.5,3.7l-3.5-5.5c35.8-76.1,56.9-114.5,63-115c0.2,3-1.3,7.8-4.6,14.2l0.2,2.4
	l5.7-0.6c14.2-34,26.2-51.5,36.2-52.3c42.5-3.7-5.9-6.5,84.9-20.7c3.7,1.7,6.3,2.4,8.1,2.2c35.6-7.2,85.3-14.8,149-22.5l-0.4-5.4
	l-34,3.1l-0.4-5.4c4.1-0.4,7.4-1.7,10.2-3.9l0.2,3c1.9-0.2,4.4-1.5,7.8-3.7c5.9-0.6,10.3,0,13.5,1.7c11.8-3.1,21.4-5,28.4-5.7
	l21.2-2c5.2-3.3,7.6-6.3,7.4-9l-0.2-2.4c-5.4,0.6-11.5,0.2-18.6-1.1c-0.2-3,1.3-5,4.8-5.9l39.5-3.7l18.1-4.6c0.2,2,1.1,2.8,2.6,2.8
	c1.8-0.2,4.4-1.5,7.8-3.7c0.9,0.2,2,0.2,3,0.4c-2.4,5-5.2,12.2-7.9,21.6l-5.2,0.4c-0.4-3.5-1.3-6.6-3-9.4l-2.6,0.2
	c-48,133.7-69.4,195.9-113.7,298.6c-8.1,26.2-15,40.8-20.9,43.9c0.2,3,2,4.4,5.2,4.1c1.1,12.9-1.9,25.7-9,38.2
	c-20.5,59.1-34.2,91.4-41.2,97.3l4.6,27.9c0.2,3-1.3,4.6-4.4,5l-4.8,0.4c-0.7-7.8-3.5-11.5-8.5-10.9l-2.6,0.2
	c-6.3,9.8-11.1,21-14.2,34.2l4.8-0.4c6.5-4.2,9.4-9.2,8.9-15l9.6-0.9l5.5,2c-4.4,7-6.5,12.6-6.1,16.8l2.6,4.4l-6.3,14.8l0.2,2.4
	c5.5-0.6,11.6,1.3,18.1,5.2c4.4-0.4,9.2-2.4,14.6-5.9c5.5-0.6,26.2-0.7,61.9-0.7l17.9-6.1c21.8-0.2,25.3,0.4,44.1-1.3l7.8-0.7
	l4.1-2.8l0.2,2.4c19.8-1.7,21-0.4,36.6,1.5l0.2,2.4l-10.9,0.9l0.4,4.6c3.3-0.4,6.3-1.3,8.7-3.3c2.8-0.2,4.4,1.3,4.6,4.6
	c-4.4,0.4-9.4,1.5-15,3.3l-4.8-1.7c-7.6,2-5.9,2.6-11.1,3l-7.6-1.5c0.2,1.3-0.6,2.2-1.8,2.2c0.2,3,1.8,4.4,4.6,4.2l7.8-0.7l40.4-3.5
	l15.3-3.3c0.2,1.3,0.7,2,2,1.8l7.4-2.8l13.9-1.1c10.7-0.9,10.5-1.7,33.8-5.4c-0.2-1.5,0.4-2,1.5-2.2l0.2,2
	c37.9-6.5,40.2-6.8,46.3-8.9l0.6,1.1c9.4-2.2,4.1-1.7,6.7-3.5c0.2,1.7,0.7,2.4,1.7,2.4l6.6-0.6l-0.4-5l-13.5-0.2l-0.2-0.4
	c-0.6,0.2-0.9,0.2-1.5,0.4h-1.8v0.4c-9,1.8-9.2,0.6-15.1,1.1l-33.8,1.8l-0.2-2.4l18.8-2.6l6.8-0.6l3.9-2.8l0.2,2.4
	c26.6-2.2,36,4.4,159-21.8c6.6-0.6,6.1-6.1,10.3-17.5c-2.3,0.2-4.5-0.4-6.5-1.5c-10.2,3.9-15.5,2-35.1,5.2c-1.7,0.2-3-1.3-3.5-4.2
	l-0.2-2l18.8,0.6c3.5-0.4,10.3-0.9,20.5-6.6C2458.5,827.4,2454.8,828.3,2457,828.2L2457,828.2z M1547.8,842.7l-8.7,0.7
	c-0.4-3.5,4.2-16.8,13.8-39.5l5.7-0.6C1558.9,808.8,1555.4,821.9,1547.8,842.7z M1558.3,800.6l-0.2-2.4c-0.2-3,1.7-5,5.7-5.9
	l0.2,2.4C1564.3,798.2,1562.4,800.3,1558.3,800.6z M1673.7,889.8l0.2,2.4l-14.4,1.3l-0.2-2.4L1673.7,889.8L1673.7,889.8z
	 M1656.4,888.3c0.2,3-4.2,6.3-13.8,9.6l-17.7-1.3l-5.7,0.6l-0.6-5.4L1656.4,888.3L1656.4,888.3z M1773.1,351.2l-8.7,0.7l-0.2-3
	c-0.2-3,1.5-5,5.2-5.9l3.1-0.2l5.9,2.4C1778.6,348.8,1777,350.9,1773.1,351.2z M1905.1,325.4l2.8-0.2l0.4,5.4l-7.9,0.7
	C1900.1,328.3,1901.6,326.3,1905.1,325.4z M1871.9,337l-13.1-1.5l-0.2-2.4c17.2-1.5,22.9-3.3,33.4-6.3c0.2,2,2,2.8,5.4,2.4l0.4,5.4
	l-5.2,0.6c-4.1,0.4-7.6-0.2-10.5-1.8C1878.9,335.4,1875.6,336.6,1871.9,337L1871.9,337z M1888.3,384.8l-0.2-2.4l21.2-2l0.2,2.4
	L1888.3,384.8z M1911,366.4l-0.2-3l10.3-0.9l0.2,3L1911,366.4z M1913.4,330.2l-2.8,0.2l2.4-5.7l23.6-2.2l0.2,3
	C1930.8,325.9,1922.8,327.6,1913.4,330.2z M1925.4,381.1l-0.4-5.4l10.3-0.9c3.5-0.4,5.4,1.3,5.5,5L1925.4,381.1L1925.4,381.1z
	 M1988,295.8l-13.3,3.7l-2.4,0.2c-6.3,0.6-14.4,0.4-24-0.6C1965.5,298.1,1981.9,296.8,1988,295.8L1988,295.8z M1973.8,354.9l0.2,2.4
	l-18.3,1.7l-0.2-2.4C1955.5,356.6,1973.8,354.9,1973.8,354.9z M2003.7,369.1c-0.2-2.2-3.7-3.7-10.9-4.4l-18.3,5.2l-14,0.6
	c-3.1-2.2-4.8-3.7-5-4.8l16.3,0.9l36.6-5.9l18.6,0.7l0.2,3C2017.9,365.3,2010.2,366.9,2003.7,369.1z M2191.8,320.6
	c2.2,0.2,3.7,0.2,4.2,0.2c6.5-6.3,13.7-11.3,22-14.8c-6.6,29.2-17,50.8-31.2,64.8l-10.3-6.3C2185.2,342.6,2190.4,328,2191.8,320.6
	L2191.8,320.6z M2160.1,375.1l2.6-0.2c-3.5,6.6-6.6,10.2-9.2,10.3l-0.6-7C2154.5,378.2,2156.9,377.1,2160.1,375.1z M2139.6,424
	c5-19.9,9.8-31.2,14.2-34.2l0.2,2.4c-2.6,18.5-6.7,28.3-12,29l0.9,11.6c-4.4,6.3-6.5,11.1-6.3,14.8l-2.6,0.2l-1.5-16.1
	C2135.5,431.4,2137.9,428.8,2139.6,424L2139.6,424z M2131.6,450.6c0.2,2.8-1.7,9.2-5.4,19.2l-2.6,0.2l-0.6-7
	C2126.7,454.8,2129.6,450.8,2131.6,450.6L2131.6,450.6z M1982.6,883l-0.2-2l4.8-0.4l0.6,7C1985.2,887.8,1983.4,886.3,1982.6,883z
	 M2195.5,888.5c-0.2-1.7-0.9-2.4-2.6-2.2l-12,1.1l-0.2-2.4h1.1l28.4-2.4l0.2,2.4C2202.2,885.4,2197.2,886.7,2195.5,888.5z
	 M2181.3,882.6c1.1,0.6,0.6,1.1,0,1.5C2180.8,883.9,2180,883.4,2181.3,882.6z M2182.8,849.4l-15.9,1.3l-0.2-2.4l14.4-1.3l12.6-3.1
	c0.2,1.5,0.9,2,2.6,1.8c15-2.6,13.5-3.3,20.7-3.9c2.4-0.2,3.9,1.3,4.1,4.2L2182.8,849.4L2182.8,849.4z M2238.4,844.6
	c-8.9-0.9-9.4-1.7-15.7-1.1l-0.2-2l14.2-1.3l0.2,2C2235.4,842.4,2240.8,842.7,2238.4,844.6L2238.4,844.6z M2239.5,842l-0.2-2
	l7.8-0.7l0.2,2L2239.5,842z M2256.6,840.5l-0.2-2c1.3-0.2,3.1-1.1,5.5-3c3.9-0.4,5.9,2.2,6.3,5.2L2256.6,840.5L2256.6,840.5z
	 M2278.6,837.8l-0.2-2.4l9.4-0.7l0.2,2.4L2278.6,837.8z M2291.7,836.6c-0.2-2.8,0.9-4.4,3.3-4.8l3.1,4.1c-0.2-1.3,0.4-2,1.5-2.2
	l2.4,4.4L2291.7,836.6L2291.7,836.6z M2152.3,896.8l-0.4-4.6l-1.5,0.2l0.4,4.6L2152.3,896.8z M2476.7,812.8c1.5-0.9,2.2-1.8-1.3-2.4
	c-1.7,1.8,1.8,2.4-1.8,2.6l0.2,1.7c0.4-0.4,1.3-0.9,2-1.5l-2,1.7v0.2l-3.9,5l7.8-2.8h0.9l-0.4-4.6L2476.7,812.8z M2490.2,823.4
	l-1.5,0.2l0.4,4.6l10.9-0.9C2499.8,824.3,2492.6,823.4,2490.2,823.4L2490.2,823.4z M2473.4,815.2l0.2-0.2v-0.2
	C2473.6,814.9,2473.4,815,2473.4,815.2L2473.4,815.2z"/>
<path class="st0" d="M1764.6,473.5l0.2,3l6.1-0.6c-0.2-1.8,0.6-4.8,1.8-8.5l-0.6-5.4C1769.6,462.2,1767,466.1,1764.6,473.5
	L1764.6,473.5z M1706.2,333.1l-0.6-5.4l-8.7,0.7l0.6,5.4L1706.2,333.1z M1536.9,650.2c-0.4-5-15.9-24.4-46.5-58.5
	c-0.6-6.3,10-15.7,31.6-28.1l61.7-53.7c13.8-17.5,22-46,24.4-85.5l-0.7-9c-2.4-27.3-22.2-49.3-59.6-66.1
	c-22.2-15-62-23.3-119.6-24.7c-47.6,4.1-109.9,21-186.5,51.1c-21,15.1-45.1,30.3-72,45.4l0.4,4.6c1.7-0.2,4.2-1.1,7.2-3.1
	c3.1-0.4,5,1.1,5.2,4.1l4.6-2.4l2.2-0.2l0.2,2c0.2,2.4-16.4,15.5-50,39l2.6,4.8l-2.2,0.2l-5.5-2c0.2,1.7-2.2,2.8-6.8,3.1l0.2,2
	l5.4,6.6c-1.7,0.2-4.2-0.6-7.8-1.8c-7.8,0.7-15.3,4.8-22.9,12.6l3.1-13.7c11.3-48.6,19-91.6,23.1-128.9l-0.6-2.4
	c-7.8-5-15.3-12-22.3-20.9c0.2-5.7,0.2-9,0-9.8l-0.6-2l-2.2,0.6c-24.4,36.6-71.3,99-140.9,187.2c-53,62.8-80.3,97.7-82,104.7
	c-21.6,22.3-31.9,35.8-30.8,40.4c-5.7,3.7-8.1,7.4-7.2,11.4c-1.7,0.4-2.8-0.2-3.1-1.8c-9.2,15-22.9,24.6-41.2,28.8l-19.2,4.4
	c-2.6,0.6-3.9,2.4-3.7,5.5l0.6,2.4l7.2-1.7l0.6,2l-16.3,6.3l-28.8,6.6l-15.1,0.9c-2.2,2.2,12-0.2,6.5,1.1l-18.8,4.4
	c-11.4,2.6-17.7,1.7-18.8-3l-2.2,0.6c0.4,2,0.6,3.5,0.2,4.8l-1.1-4.6l-15.1,3.5c-1.1-7-21.6-32.5-61.3-76.4
	c-0.7-8.5,13.3-20.9,41.9-36.9l80.9-71.1c18.1-23.3,28.8-60.6,32.3-111.9l-1.1-12c-3.1-36.2-29.4-65.4-78.7-87.9
	c-29.2-19.8-81.6-30.3-157.3-31.9c-62.8,5.4-144.8,27.7-245.6,66.7c-27.7,20.1-59.3,40.1-94.7,59.8l0.6,6.3c2.4-0.2,5.5-1.5,9.4-3.7
	c4.1-0.4,6.3,1.5,6.6,5.2l6.3-3.5l3.1-0.2l0.2,3c0.2,3-21.8,20.1-66.3,51.5l3.5,5.5l-3.1,0.2l-6.8-2.4c0.2,1.8-3,3.1-9.4,3.7
	l0.4,3.3l7.4,8.1c-2.4,0.2-5.7-0.6-10-2c-14.4,1.3-28.4,11.6-42.3,31.2l3.5,5.5c12-11.1,19-16.6,21-16.8l0.7,9
	c-2,0.2-5.2,1.5-9.4,3.7l7.6,11.4c14.3-15.5,30.5-29,48.2-40.4c8.7,2.2,13.3,5,13.5,7.9l6.7-0.6c47.6-35.3,94.7-60.7,141.4-76.4
	l0.6,6.3c-8.7,12.9-14.6,19.6-17.7,19.9c0.4,4.4,1.9,8.3,4.6,11.6c0.7,7.9-20.5,61.5-63.5,160.4C148.6,853.8,66.7,1024.1,0,1134.1
	c0.2,2.2,1.5,5.2,3.9,8.9c16.4-3.9,26.8-7.9,31.2-11.8l3.5-0.4l0.6,6.3l6.1-0.6l6.3-3.5c0.2,1.8,2.2,2.8,6.5,2.4l0.6,6.3
	c0.6,6.1-3,15.3-10.3,28.1c-6.6,7.6-13.8,23.5-21.4,47.6l0.2,2.9l6.1-0.6c26.6-29.7,46.7-58.9,60.6-87.3
	c77.5-22.7,136.6-45.1,177.6-67c41.2-3.5,72.6-14.4,94-32.3l-0.4-3.3l-15.5,4.6l-3.5,0.4l-0.4-3.3c30.3-4.6,51.1-11.3,62.8-20.5
	c58.9-45.4,103.4-77.5,133.5-96.6c61.9-45.4,102.1-89.7,120.4-132.8c3.3-0.7,6.6-1.5,10.3-2.4c8.7-0.4,13.5-0.6,14.8-0.9
	c-0.4-1.7,0.4-2.6,2-3c13.8-1.5,7.2,0.9,16.1-1.1l23.3-5.4l3.9-0.9l-1.8,1.1c2.6,0.4,5.4,0.2,8.5-0.6l1.7,6.8L635,943.6l-23.4,29.4
	l-11.5,38.4l2.2-0.6l11.4-4.8l-3.7,15l1.1,4.4l3.1,3.9c-1.5,0.4-2,1.3-1.7,3l0.6,2.4l4.8-1.1c7-6.1,10-11.6,8.9-16.6
	c7.6,1.3,12.6,1.8,15.1,1.1l0.6,2.4c-4.6,1.1-7,4.8-7.4,11.1l0.6,2.4l2.6-0.6c38.4-41.9,132.6-185.4,208.1-282.7
	c-2.4-10.5,36.9-25.1,118.2-43.9l2.6-0.6c3,12.7-3.3,43.6-18.8,92.5c-10,29.5-14.8,45.8-14,48.4c-12.9,39.3-19,60.6-18.3,63.9
	l-28.8,94.4c-18.7,48.4-32.9,99.2-42.8,152.7c1.7-0.4,4.2-0.2,7.9,0.7l4.1-3.5c0.4,1.7,1.5,2.2,3.1,1.8l-1.7-6.8l12.6-0.4
	c3.7-0.9,6.8-5.5,9.4-14c-0.6-12.7,2-19.6,7.8-21c7.8-30.3,12.6-45.4,14.2-46c7.2-30.1,12.6-47.3,16.1-51.5
	c10.9-39.1,18.8-59.3,24-60.6l1.1,4.8L935,982c-13.9,61.5-27.9,110-42.1,145.7l4.1,17.7l2.6-0.6c34.3-73.9,83.8-220.1,148.3-438.7
	c1.8-19.2,11.1-34.2,27.5-44.7l-3.7-3.9l-0.6-2c7.4-1.7,12.6-4.6,15.5-8.7c-0.4-1.7-6.8-4.1-19.4-7.4l32.1-137.7
	c7-6.3,11.1-9.6,12.4-9.6l0.6,7c-1.7,0.2-4.2,1.1-7.2,3.1l6.1,8.7c11.1-12,23.1-22.3,36.2-31c6.7,1.8,10,4.1,10.3,6.3l4.8-0.4
	c36.6-26.8,72.4-46,107.6-57.6l0.4,4.6c-6.5,9.8-10.9,14.8-13.3,15c0.4,3.3,1.3,6.3,3,8.9c0.6,6.1-15.3,46.7-47.8,122
	c-74.2,174.5-136.5,303.5-187,387.4c0.2,1.7,1.3,3.9,3.3,6.8c12.4-3,20.3-6.1,23.5-9l2.2-0.2l0.4,4.6l5.2-0.4l4.6-2.4
	c0.2,1.3,1.8,1.8,5,1.7l0.4,5c0.4,4.4-2.2,11.4-7.9,21c-5.4,5.7-10.9,17.7-16.8,36l0.2,2.4l4.8-0.4c20.1-22.5,35.4-44.7,46-66.5
	c58.9-17.4,103.8-34.2,134.8-50.8c31.6-2.8,55.4-10.9,71.6-24.6l-0.2-2.4l-12,3.5l-2.6,0.2l-0.2-2.4c22.9-3.3,39-8.5,47.6-15.3
	c44.7-34.3,78.5-58.9,101.4-73.3C1507.8,747.8,1541,698,1536.9,650.2L1536.9,650.2z M1524.7,653.3l1.7,18.6c-2.2,4.6-4.6,7-6.8,7.2
	l-2.8-31.8C1522,649.2,1524.6,651.1,1524.7,653.3L1524.7,653.3z M126.7,503l-3.1,0.2l-0.6-5.7l12.7-1.1l0.2,3
	C133.9,499.5,130.7,500.6,126.7,503L126.7,503z M64.4,1125.4c-7.4-3.3-14-4.6-19.8-4.1l-0.7-9c-0.4-3.5,1.7-5.9,6.1-6.8
	c4.1-0.4,6.5,2.6,6.8,8.5c10.7-13.1,16.6-19.8,17.7-19.9l6.8,2.8C79.2,1115.3,73.5,1124.7,64.4,1125.4z M729.3,429.9
	c-3.1,0.4-9.4-9.4-18.5-28.8l-0.6-5.7c5.9-0.6,12,9,18.5,28.8L729.3,429.9z M720.5,361l-2.6,6.1l-90.3-37.7
	C687.8,331.5,718.8,342,720.5,361z M339.2,688.4l-12.7,1.1l-0.6-5.7l12.7-1.1L339.2,688.4z M328.8,491.7l3.1-0.2l0.7,9
	c-3,0.2-6.8,4.6-11.6,13.1l-0.6-6.3C326.3,500.6,329.2,495.4,328.8,491.7L328.8,491.7z M302.1,554.9l1.1,12l-3.1,0.2l-1.1-12
	L302.1,554.9z M288,577.4l6.1-0.6c-0.6,10-3.3,15.3-8.3,15.7l-3.1,0.2C286.6,586.1,288.4,580.9,288,577.4z M277.5,608.8l3.5-0.4
	l0.2,3l-5.7,9.6l-6.1,0.6l-0.2-3C275.3,618,278.1,614.9,277.5,608.8L277.5,608.8z M267.2,637.1l-1.8,15.1l-3.1,0.2l-1.3-15
	L267.2,637.1z M163.6,931.6c-4.1,20.7-8.5,31.2-13.1,31.6l-0.2-3C149.2,950,153.6,940.4,163.6,931.6L163.6,931.6z M144.6,972.7
	l0.2,3c0.4,4.1-1.5,6.5-5.5,6.6l-0.2-3C138.7,975.9,140.5,973.6,144.6,972.7z M139,1058.2l9.6-0.9l0.4,3.3c-2.4,0.2-5.5,1.5-9.4,3.7
	l-6.1,0.6C133.1,1061.7,135.2,1059.3,139,1058.2L139,1058.2z M412.3,973.8c-53.9,26.6-85.7,44.7-95.1,54.1
	c-58.3,20.3-87.3,32.9-86.8,37.9c-51.9,20.5-86,35.6-102.5,45.1c-3.9,0.4-9.4-1.1-16.8-4.4c-0.9-10.5,3.9-19,14-25.8
	c9-0.7,17.7,0.6,26,4.1c9.6-5,26.4-10.5,50.2-16.4l-0.6-6.3l-19.2,1.7c2.4-3.3,20.9-12,55.6-26l9.6-0.9l0.2,3
	c-16.4,1.5-25.5,6.3-27.5,15c0.4,3.9,2.6,5.5,6.6,5.2c12.4-7.8,18.5-12.4,18.3-13.7c23.4-4.4,88.3-38.4,194.4-101.7l0.6,5.7
	C439.6,952.8,430.6,960.5,412.3,973.8z M249.4,1027.4c15.5-1.3,28.8-7.6,39.9-18.5c4.4-0.4,6.8,1.3,7,5.2c-7.6,0.7-22.2,7-43.4,19.2
	l-3.1,0.2L249.4,1027.4L249.4,1027.4z M512.2,825.6l-81.4,64.6c-60.6,39.7-93.1,59.6-97.9,60c-96.4,53-156.4,80.5-179.6,82.5
	l-3.5,0.4c3-10.9,45.8-98.6,128.9-263.7c36.6-3.1,94.2-20.1,172.6-51.1l19.2-1.7c39.7-3.5,69.4,4.2,89,22.7l1.1,12
	C546,793.6,529.7,818.4,512.2,825.6L512.2,825.6z M353,736l13.1-1.1l0.2,3l-13.1,1.1L353,736z M537.1,704.8l9.6-0.9
	c8.9,4.2,13.5,7.9,13.8,11.3l0.2,3C552.3,718.8,544.3,714.4,537.1,704.8z M563.1,556.6c-8.5,10.2-31.8,27.5-69.8,51.9
	c-12.6,1.1-59.3,19.2-140.1,54.7c-4-1.8-8.5-2.6-12.9-2.2l-0.6-5.7c-0.9-11.6,4.2-26.2,15.7-43.9c6.3-33.2,13.1-52.3,20.7-56.9
	l67.4-151.6c-0.7-9.4,13.7-16.6,43.2-21.6l9.6-0.9l0.7,8.7c29-4.4,47.1-7,54.1-7.6c53.5-4.6,81.4,6.3,83.6,32.3l6.1-0.6l-1.3-15.3
	l6.7-0.6c15.7,8.7,24.2,19.2,25.3,31.6c0.7,8.5-3.9,19-13.7,31.6c-4.1,0.4-6.5-2.6-6.8-8.5l-6.7,0.6l-1.5,18.5
	c-27.1,40.6-46.9,61.5-59.1,62.6C572.7,548.8,565.9,556.4,563.1,556.6L563.1,556.6z M604.5,662.7c-5.5-3.7-10-5.4-13.3-5.2l-0.7-9
	l6.1-0.6l13.5,7.9C610.6,660.1,608.8,662.3,604.5,662.7L604.5,662.7z M647.3,713.5c5.9,2.4,9.4,5,10.2,7.4l-3,0.7l0.2,0.2
	c-0.6,0-1.3,0.2-1.8,0.4l-4.4,3.5L647.3,713.5L647.3,713.5z M651.4,739l-0.6-2.4l7.8-1.8l0.6,2.4L651.4,739L651.4,739z M670.1,759.8
	c7.9-1.3,11.8-1.8,26.6-5.2l0.6,2.4l-28.1,6.5C669.5,762.2,669.9,760.9,670.1,759.8L670.1,759.8z M697.4,771.5
	c-11.8,1.1-9.2-0.4-28.1,3.9l-0.6-2.4l23.6-7.6l11.3-2.6l1.1,4.4C699.6,768.3,703.3,768.3,697.4,771.5z M722.3,765.6
	c-2.8,0.7-5-0.6-6.3-3.7l7.2-1.7c3.1-0.7,5.2,0.6,5.9,3.7L722.3,765.6L722.3,765.6z M789.9,692.8l-0.6-2.4l11.6-2.8l1.1,4.4
	L789.9,692.8z M862.1,1135.6c0.7-3.3,0.9-5.7,0.6-7.4l2.6-0.6c3.1-0.7,5,0.4,5.7,3.3l0.6,2.4L862.1,1135.6L862.1,1135.6z
	 M912.7,711.8l-5.2-0.9c-8.3,3.3-15.3,5.7-21,7l-4.8,1.1c-2.8,0.7-5-0.4-6.1-3.3l33.8-7.8l11.1-5.2l3.7,4.2
	C918.8,708.1,914.9,709.8,912.7,711.8L912.7,711.8z M938.7,703.5l-0.6-2.4c1.7-0.4,3.9-1.7,6.3-4.1l24-5.5l0.6,2.4
	C956.2,697.1,946.1,700.2,938.7,703.5z M942.4,655c-1.7,0.4-3.9,1.8-6.6,4.1c-0.4-1.7-3.7-1.7-10-0.2c-1.1-4.6,16.6-11.1,53.4-19.6
	l5.2-1.1l1.1,4.4C959.6,650.2,945.2,654.4,942.4,655L942.4,655z M1007,585.2c-2.6,29.4-12.9,46-31.2,50.2l-0.6-2.4l-16.3,6.3
	l-7.2,1.7c-3.7,0.9-7,0.7-10-0.2l-1.5-6.5c-0.6-2.4,22.9-34.9,70.5-97.3l5.5,0.9C1018.5,546.4,1015.3,562.1,1007,585.2L1007,585.2z
	 M1121.3,487.3l-2.2,0.2l-0.4-4.6l9.6-0.9l0.2,2.4C1126.8,484.7,1124.4,485.7,1121.3,487.3z M1074.2,960.2
	c-5.5-2.6-10.5-3.7-14.8-3.3l-0.6-7c-0.2-2.4,1.3-4.1,4.4-5c3.1-0.4,5,1.8,5.4,6.6c7.9-10.2,12.4-15.3,13.3-15.3l5,2
	C1085.1,952.2,1080.9,959.6,1074.2,960.2z M1579,432.1c-2.4,0.2-7-7.2-14.2-22.2l-0.4-4.6c4.6-0.4,9.4,6.8,14.2,21.6L1579,432.1
	L1579,432.1z M1572.4,379.3l-2.2,4.8l-68.3-28.6C1547.5,357,1571.1,364.9,1572.4,379.3z M1282.7,628l-9.6,0.9l-0.4-4.6l9.6-0.9
	L1282.7,628z M1274.7,478.6l2.6-0.2l0.6,7c-2.4,0.2-5.4,3.5-8.9,10l-0.4-4.6C1272.9,485.5,1274.9,481.4,1274.7,478.6L1274.7,478.6z
	 M1254.6,526.6l0.7,9l-2.6,0.2l-0.7-9L1254.6,526.6z M1243.7,543.8l4.8-0.4c-0.6,7.8-2.6,11.8-6.1,12.2l-2.6,0.2
	C1242.6,550.6,1243.9,546.6,1243.7,543.8L1243.7,543.8z M1236,567.4l2.2-0.2l0.2,2.4l-4.2,7.4l-4.8,0.4l-0.2-2.4
	C1234.1,574.6,1236.3,572.1,1236,567.4L1236,567.4z M1228.2,588.9l-1.7,11.8l-2.2,0.2l-0.9-11.6L1228.2,588.9L1228.2,588.9z
	 M1149.4,812.8c-3.1,15.5-6.5,23.5-10,23.8l-0.2-2C1138.7,826.9,1142,819.5,1149.4,812.8L1149.4,812.8z M1134.8,844l0.2,2
	c0.4,3.3-1.1,5.2-4.4,5.4l-0.2-2.4C1130.2,846.6,1131.6,845,1134.8,844L1134.8,844z M1130.7,909l7.4-0.6l0.2,2.4
	c-1.7,0.2-4.2,1.1-7.2,2.8l-4.8,0.4C1126.1,911.4,1127.6,909.8,1130.7,909L1130.7,909z M1338.1,845c-40.6,20.1-64.8,33.8-72.4,40.8
	c-44.3,15.5-66.3,25.1-65.9,29c-39.3,15.7-65.2,27-77.4,34.2c-3,0.2-7.2-0.9-12.7-3.5c-0.7-7.9,3-14.4,10.7-19.2
	c7-0.6,13.7,0.4,19.8,3c7.4-3.7,20.1-7.8,38.2-12.4l-0.4-4.6l-15,1.3c1.8-2.6,16.1-9.2,42.5-19.9l7.4-0.6l0.2,2
	c-12.6,1.1-19.6,4.8-21,11.5c0.2,3,2,4.4,5.2,4.1c9.2-6.1,13.7-9.6,13.7-10.7c17.7-3.1,66.8-29,147.5-77.4l0.4,4.6
	C1358.8,828.9,1351.9,834.8,1338.1,845L1338.1,845z M1214.4,885.6c12-1.1,22.2-5.7,30.6-13.8c3.1-0.2,5,1.1,5.2,4.1
	c-5.5,0.6-16.4,5.2-32.9,14l-2.6,0.2L1214.4,885.6L1214.4,885.6z M1414.1,732.1l-61.5,49.5c-46,30.1-70.9,45.2-74.8,45.6
	c-73.1,40.2-118.5,61.1-136.5,62.6l-2.6,0.2c2.2-8.3,34.9-75,98-200.1c27.5-2.4,71.1-15.5,130.9-39.1l15-1.3
	c30.1-2.6,52.6,3.3,67.4,17.5l0.7,9C1439.6,707.8,1427.4,726.4,1414.1,732.1L1414.1,732.1z M1293.4,664.2l9.6-0.9l0.2,2.4l-9.6,0.9
	L1293.4,664.2z M1433.2,640.4l7.4-0.6c6.8,3.3,10.3,6.3,10.5,8.7l0.2,2C1444.8,651.1,1438.7,647.8,1433.2,640.4z M1452.5,527.9
	c-6.5,7.8-24,21-52.6,39.5c-9.6,0.9-45.1,14.6-106.4,41.2c-3-1.1-6.3-1.5-9.8-1.3l-0.4-4.6c-0.7-8.9,3.1-19.9,11.6-33.4
	c4.8-25.5,10.2-39.7,15.7-43l51.5-115.2c-0.6-6.8,10.3-12.4,32.5-16.6l7.4-0.6l0.6,7c21.8-3.5,35.4-5.5,41-6.1
	c40.6-3.5,61.9,4.6,63.5,24.6l4.8-0.4l-0.9-11.1l4.8-0.4c11.8,6.5,18.1,14.2,18.8,23.4c0.6,6.6-2.8,14.8-9.8,24.2
	c-3.1,0.4-5-1.8-5.4-6.7l-4.8,0.4l-1.5,13.8c-20.5,31.2-35.5,47.3-44.9,48C1460.1,522,1454.9,527.8,1452.5,527.9L1452.5,527.9z
	 M1474.2,604.7l-0.6-7l4.8-0.4l10.3,6.3c0.2,3-1.3,4.6-4.4,5C1479.9,605.9,1476.6,604.6,1474.2,604.7L1474.2,604.7z M614.7,1053.2
	l-4.8,1.1l-4.1,3.5c0.7,3,2.6,4.1,5.7,3.3c3.1-0.7,4.4-2.6,3.7-5.5L614.7,1053.2L614.7,1053.2z M596.4,1016.9l0.6,2.4
	c3.1-0.7,4.4-2.6,3.7-5.5l-0.6-2.4C597.1,1012.1,595.8,1013.9,596.4,1016.9L596.4,1016.9z M727.1,771.3l3.5-2.2
	c-0.7,0-1.3-0.2-1.9-0.4C727.5,769.1,726.9,770,727.1,771.3z M726.4,707.6l5.5-1.3l-1.1-4.8l-5.5,1.3L726.4,707.6z M2031.2,894.1
	l-12.6-1.5l-2.2,4.8l0.2,2.4l74.8-6.3l-0.4-4.6L2031.2,894.1z M2099.5,888.3l0.4,4.6h0.7l-0.4-4.6H2099.5z M2413.2,847.4l0.4,4.6
	l8.1,1.5l-0.4-4.6L2413.2,847.4z M2401.8,848.3c-56.1,12.6-63.1,10.3-75,11.3l0.4,4.6l5.2-0.4l2.8-0.2l-0.7-0.6l6.1-2.4
	c55.6-6.1,62-3.9,61.5-10.2L2401.8,848.3z M2064.8,766.7l-5-1.7c-4.1,10.9-6.1,17.4-5.9,19.2l0.2,2
	C2058,786.1,2061.5,779.4,2064.8,766.7z M1997.2,730.3l-0.2-2.4l-2.6,0.2l-4.6,3l2.6,4.4C1995.9,735.1,1997.6,733.4,1997.2,730.3
	L1997.2,730.3z M2144,882.1l-0.4-4.6l-1.5,0.2l0.4,4.6L2144,882.1L2144,882.1z M2448.7,813.4l3.5-0.4c2-0.2,3-1.8,2.8-4.8l-2-4.4
	c-12.7,1.1-18.6,1.7-29,7.4l-0.2-2.4l-15.3,1.5c-0.4-4.6-1.7-7-3.7-6.8l-7.9,0.7c-9.2,0.7-13.7,0.4-18.3,3.9
	c-0.2-1.7-0.7-2.4-1.7-2.4l-8.9,0.7l-5.2,3c-0.2-1.7-0.7-2.4-1.7-2.4l-3.1,2.8l-0.2-2.4l-12.4-0.9l-3,0.2l0.4,4.6l6.3,1.7l5.9-0.4
	c2,1.3,4.2,1.7,6.8,1.5l5.2-2.6l0.2,2c-29,7.2-28.8,5.9-48.7,9.2c-2.2-1.5-3.9-2.2-5-2l-0.4,0.4c-2.2-0.2-3.5-1.7-3.7-4.1l10.3-1.3
	c0.7,0,1.3,0.7,7,1.9c8.3-4.1,8.7-5.7,13.1-6.1l-0.4-4.6c-28.4,5.5-17,1.8-52.6,5l-1.7,0.2l-0.4-4.6c45.8-5.5,30.5-2.4,46.2-6.8
	c0.2,1.7,0.7,2.4,1.7,2.4c1.7-1.7,3.9-2.8,6.3-3.1l3.1-0.2c16.1-1.3,21.4,1.8,53.2-7l0.2,2l5.2-2.6l4.8-0.4c-0.4-4.6,6.7-5.4,9-5.5
	l-0.4-5c-55.8,11.3-70.4,8.1-85.9,12.6l-0.2-2c-14.6,2.6-15.1,1.5-18.8,1.7c-1.1,0.2-2.8,1.1-4.6,3c-0.2-1.7-0.7-2.4-1.8-2.4
	c-0.6,0-0.7,0.2-0.9,0.2l-47.3,7.8c-0.2-1.3-0.7-2-1.8-1.8c-24.6,5.2-17.9,6.1-50.8,9c-1.5,0.2-3.5,0.9-6.1,2.6
	c-0.2-1.3-0.9-2-2.6-1.8l-20.1,1.7l-13.5,3.3c-0.2-1.3-0.9-2-2.6-1.8c-7.6,2-14.2,3.3-19.6,3.7h-0.4c-3.3,0.4,1.7-0.9-0.9-2
	l-4.1,2.4c-5.9,0.6-2.8-0.4-23.1-0.2c-35.6,4.4-31.8,5-35.6,5.2l-13.3-0.9c0.2,1.3-0.6,2.2-2,2.2c-15.1-2-22.9-4.4-23.1-7.2
	c2-14.4,5.5-21.8,10.5-22.2l2.6-0.2l-2.2,4.8l2.6-0.2c4.8-2.6,7-5,6.8-7.2l-0.4-5l-4.8,0.4l-0.4-4.6c-0.4-3.5,0.2-6.6,1.5-9.2
	l10.9-17.5l0.4,4.6l5.2-0.4l-0.4-4.6l-3-4.2c3.9-3.3,6.8-5.2,9.2-5.4l-0.2-2.4l-7,0.6l-0.6-7c14-29.2,20.7-46.2,20.3-51l5,2
	c3.1-0.2,4.6-2,4.4-5.4l-4.8,0.4l-0.2-2c-0.3-3.4,0.3-6.8,1.8-9.8c7.6-7.9,11.1-15.9,10.3-24.2c1.5-0.2,2.2,0.6,2.4,2.2
	c6.5-3.7,11.5-13.5,15.1-29.7c11.4-20.7,27.7-62,48.9-123.9c40.6-109.3,39-120.9,44.7-146.8l-4.8,0.4c0.4,3.3-0.4,6.5-1.8,9.4
	c-3.3-1.3-5.9-2-7.8-1.8l-0.2-2c-0.7-9.4,3.1-20.7,12-34l2.2-0.2l4.1,15.9l4.8-0.4c-0.2-1.1,1.1-7.4,3.7-19c-0.2-2.4-2-3.9-5.7-4.1
	l-4.6,3c-0.4-3.3-0.2-12,0.4-25.8l-2.4,0.2c-4.1-4.1-6.1-7.4-6.3-10.2l-26.4,2.6c-0.2-1.8-1.1-4.6-3-8.1c-0.2-2.4,5.7-4.8,17.9-7.2
	l5.4,2l5-3c0.2,1.7,1.1,2.4,3,2.2l5-3c0.2,1.7,1.1,2.4,3,2.2l2.4-0.2l-0.4-5.4c-3.7,0.4-13.5,0.4-29-0.2l-5,3.3l-0.2-3
	c-123.9,10.2-194.2,15.9-211,17.5c-2.2,0.2-10.9,0-26.2-0.4c0.2,2-1.7,3.1-5.4,3.5l-5.4-2.4l-18.1,4.6c-4.2,0.4-11.5,0.2-21.4-0.9
	c-2.8,2.2-6.1,3.5-10.2,3.9c-2.2,0.2,26.4-1.5,53-3.3c-2.8,2.2-7,3.5-12.9,4.1c-4.1,0.4-7.6-0.2-10.5-1.8
	c-4.1,1.8-17.2,4.8-39.1,9.2l-5.4-2l-86.4,13.3c-3.3-1.7-7.2-2.2-11.6-1.8c-4.6,0.4-12.4,2-23.1,5l-41.7,17.4l3.1,5.2
	c2-0.2,5-1.3,8.5-3.3l14.8,1.3l-1.8,13.8c-13.7,6.1-21.6,15.1-23.8,26.6c-20.5,9-30.6,15.5-30.6,19.4l0.2,2.4l3.1-0.2l5.5-3l6.5,7.8
	l0.9,10.7c0.4,3.3-34.2,75.9-103.2,217.7c-59.8,136.6-91.2,211.4-94.2,224.9c-20.5,5.7-32.3,14-35.8,25.1c0.4,3.5,6.5,5.9,18.3,6.8
	l0.6,5.4l-5.4,8.9l0.9,10.7c0.6,5.5,15.5,9.8,44.9,12.7c-0.2-1.8,0.7-3,2.8-3.1c0.6,6.6-1.3,19.6-5.5,38.8l3.1-0.2
	c12.2-16.6,17.9-28.1,17.4-34.3l2.6-0.2c3-0.2,6.1,3.1,9.8,10.3c-3.7,1.5-16.6,30.8-38.8,88.3l3.1,5.2l3.1-0.2
	c27.1-68.7,44.1-106.7,51.1-113.9c35.6-3.1,97.3-9.4,184.8-18.8l5.5-3.3c0.2,1.9,1.3,2.8,3.3,2.6l5.7-0.6l5.5-3.3
	c0.2,1.8,1.3,2.8,3.3,2.6l66.3-5.7c17.5-1.5,25.8-6.8,25.1-15.9c-0.2-2.4,10.2-5.2,31-8.1c2-0.2,5,0.4,9,1.7
	c-0.2-1.7,10.3-3.3,31.4-5.2c0.6-11.1,4.1-17,10.3-17.5l-0.6-5.4c-5.9,0.6-12.6,2-20.3,4.6c-13.8-0.7-22.7-1.8-26.4-3.1
	c-3.7,2-6.5,3.1-8.5,3.3l-46.2,1.5l-5.5,3c-0.2-1.7-1.3-2.4-3.3-2.2l-2.6,0.2l-5.9,3c-0.2-1.7-5-3-14.6-4.2l-5.9,3.5l-11.4,0.9
	l-0.2-3c59.5-6.5,88.8-14.6,88.1-24.2c3.9-0.4,5.9,1.5,6.3,5.4l17.4-4.4l-0.6-5.4l-142.4,3.9c0.2,1.8-0.7,3-2.8,3.1l-17.4-1.5
	c-4.4,0.4-8.1,1.7-11.1,3.9l-6.5-2.4c-17.9,1.5-31.2,3.7-40.1,6.5c-12.2-0.9-25.7-0.7-40.6,0.6l-31.9,2.8l-14.8-1.7
	c-0.7-9.4,17.5-55.8,55.2-138.8c10.9-28.1,20.9-45.6,30.5-52.3c2-0.2,5,0.6,9,2.2l22.7-7.8l11.6,1.8c19.6-1.7,42.3-7.2,68.3-16.8
	c6.5-0.6,11.3-0.2,14.8,1.3l17.4-4.1l51.7-4.4c22-1.8,45.8-6.6,71.6-14.6l-0.6-5.4c-9.6,0.9-14.6-0.7-15-4.6c-0.6-7.2-7.6-10.2-21-9
	l-0.6-5.4l14.2-4.1l37.3-3.1l-0.6-5.4c-1.5,0.2-9,0-23.1-0.6l-0.6-5.7l14.4-1.3c3.9-0.4,5.5-2.2,5.2-5.9c-19.4,0.6-29.2-0.4-29.4-3
	c-135.2,6.6-202.9,7.9-203.3,3.7c-2,0.2-4.8,1.5-8.5,3.7l-3.5-5.5c35.8-76.1,56.9-114.5,63-115c0.2,3-1.3,7.8-4.4,14.2l0.2,2.4
	l5.7-0.6c14.2-34,26.2-51.5,36.2-52.3c42.5-3.7-5.9-6.5,84.9-20.7c3.7,1.7,6.3,2.4,8.1,2.2c35.6-7.2,85.3-14.8,149-22.5l-0.4-5.4
	l-34,3.1l-0.4-5.4c4.1-0.4,7.4-1.7,10.2-3.9l0.2,3c1.8-0.2,4.4-1.5,7.8-3.7c5.9-0.6,10.3,0,13.5,1.7c11.8-3.1,21.4-5,28.4-5.7
	l21.2-2c5.2-3.3,7.6-6.3,7.4-9l-0.2-2.4c-5.4,0.6-11.4,0.2-18.6-1.1c-0.2-3,1.3-5,4.8-5.9l39.5-3.7l18.1-4.6c0.2,2,1.1,2.8,2.6,2.8
	c1.8-0.2,4.4-1.5,7.8-3.7c0.9,0.2,2,0.2,3,0.4c-2.4,5-5.2,12.2-7.9,21.6l-5.2,0.4c-0.4-3.5-1.3-6.7-3-9.4l-2.6,0.2
	c-48,133.7-69.4,195.9-113.7,298.6c-8.1,26.2-15,40.8-20.9,43.9c0.2,3,2,4.4,5.2,4.1c1.1,12.9-1.8,25.7-9,38.2
	c-20.5,59.1-34.2,91.4-41.2,97.3l4.6,27.9c0.2,3-1.3,4.6-4.4,5l-4.8,0.4c-0.7-7.8-3.5-11.5-8.5-10.9l-2.6,0.2
	c-6.3,9.8-11.1,21-14.2,34.2l4.8-0.4c6.5-4.2,9.4-9.2,8.9-15l9.6-0.9l5.5,2c-4.4,7-6.5,12.6-6.1,16.8l2.6,4.4l-6.3,14.8l0.2,2.4
	c5.5-0.6,11.6,1.3,18.1,5.2c4.4-0.4,9.2-2.4,14.6-5.9c5.5-0.6,26.2-0.7,61.9-0.7l17.9-6.1c21.8-0.2,25.3,0.4,44.1-1.3l7.8-0.7
	l4.1-2.8l0.2,2.4c19.8-1.7,21.1-0.4,36.6,1.5l0.2,2.4l-10.9,0.9l0.4,4.6c3.3-0.4,6.3-1.3,8.7-3.3c2.8-0.2,4.4,1.3,4.6,4.6
	c-4.4,0.4-9.4,1.5-15,3.3l-4.8-1.7c-7.6,2-5.9,2.6-11.1,3l-7.6-1.5c0.2,1.3-0.6,2.2-1.8,2.2c0.2,3,1.8,4.4,4.6,4.2l7.8-0.7l40.4-3.5
	l15.3-3.3c0.2,1.3,0.7,2,2,1.8l7.4-2.8l13.8-1.1c10.7-0.9,10.5-1.7,33.8-5.4c-0.2-1.5,0.4-2,1.5-2.2l0.2,2
	c37.9-6.5,40.2-6.8,46.3-8.9l0.6,1.1c9.4-2.2,4.1-1.7,6.6-3.5c0.2,1.7,0.7,2.4,1.7,2.4l6.7-0.6l-0.4-5l-13.5-0.2l-0.2-0.4
	c-0.6,0.2-0.9,0.2-1.5,0.4h-1.8v0.4c-9,1.8-9.2,0.6-15.1,1.1l-33.8,1.8l-0.2-2.4l18.8-2.6l6.8-0.6l3.9-2.8l0.2,2.4
	c26.6-2.2,36,4.4,159-21.8c6.7-0.6,6.1-6.1,10.3-17.5c-2.3,0.2-4.5-0.4-6.5-1.5c-10.2,3.9-15.5,2-35.1,5.2c-1.7,0.2-3-1.3-3.5-4.2
	l-0.2-2l18.8,0.6c3.5-0.4,10.3-0.9,20.5-6.6C2450.3,812.6,2446.5,813.6,2448.7,813.4L2448.7,813.4L2448.7,813.4z M1539.5,828
	l-8.7,0.7c-0.4-3.5,4.2-16.8,13.8-39.5l5.7-0.6C1550.6,794,1547.1,807.1,1539.5,828z M1550,785.9l-0.2-2.4c-0.2-3,1.7-5,5.7-5.9
	l0.2,2.4C1555.9,783.5,1554.1,785.5,1550,785.9z M1665.4,875l0.2,2.4l-14.4,1.3l-0.2-2.4L1665.4,875z M1648.1,873.6
	c0.2,3-4.2,6.3-13.8,9.6l-17.7-1.3l-5.7,0.6l-0.6-5.4L1648.1,873.6z M1764.8,336.5l-8.7,0.7l-0.2-3c-0.2-3,1.5-5,5.2-5.9l3.1-0.2
	l5.9,2.4C1770.3,334.1,1768.6,336.1,1764.8,336.5z M1896.8,310.6l2.8-0.2l0.4,5.4l-7.9,0.7C1891.8,313.6,1893.3,311.5,1896.8,310.6
	L1896.8,310.6z M1863.6,322.2l-13.1-1.5l-0.2-2.4c17.2-1.5,22.9-3.3,33.4-6.3c0.2,2,2,2.8,5.4,2.4l0.4,5.4l-5.2,0.6
	c-4.1,0.4-7.6-0.2-10.5-1.9C1870.6,320.6,1867.2,321.9,1863.6,322.2z M1880,370.1l-0.2-2.4l21.2-2l0.2,2.4L1880,370.1z
	 M1902.7,351.6l-0.2-3l10.3-0.9l0.2,3L1902.7,351.6z M1905.1,315.4l-2.8,0.2l2.4-5.7l23.6-2.2l0.2,3
	C1922.5,311.2,1914.5,312.8,1905.1,315.4z M1917.1,366.4l-0.4-5.4l10.3-0.9c3.5-0.4,5.4,1.3,5.5,5L1917.1,366.4L1917.1,366.4z
	 M1979.7,281.1l-13.3,3.7l-2.4,0.2c-6.3,0.6-14.4,0.4-24-0.6C1957.2,283.3,1973.6,282,1979.7,281.1L1979.7,281.1z M1965.5,340.2
	l0.2,2.4l-18.3,1.7l-0.2-2.4C1947.2,341.8,1965.5,340.2,1965.5,340.2z M1995.4,354.4c-0.2-2.2-3.7-3.7-10.9-4.4l-18.3,5.2l-14,0.6
	c-3.1-2.2-4.8-3.7-5-4.8l16.3,0.9l36.6-5.9l18.6,0.7l0.2,3C2009.6,350.5,2001.8,352.2,1995.4,354.4L1995.4,354.4z M2183.5,305.8
	c2.2,0.2,3.7,0.2,4.2,0.2c6.5-6.3,13.7-11.3,22-14.8c-6.7,29.2-17,50.8-31.2,64.8l-10.3-6.3C2176.9,327.8,2182.1,313.2,2183.5,305.8
	z M2151.8,360.3l2.6-0.2c-3.5,6.6-6.6,10.2-9.2,10.3l-0.6-7C2146.2,363.4,2148.6,362.3,2151.8,360.3L2151.8,360.3z M2131.3,409.2
	c5-19.9,9.8-31.2,14.2-34.2l0.2,2.4c-2.6,18.5-6.6,28.3-12,29l0.9,11.6c-4.4,6.3-6.5,11.1-6.3,14.8l-2.6,0.2l-1.5-16.1
	C2127.2,416.6,2129.6,414,2131.3,409.2z M2123.3,435.8c0.2,2.8-1.7,9.2-5.4,19.2l-2.6,0.2l-0.6-7
	C2118.4,440,2121.3,436,2123.3,435.8L2123.3,435.8L2123.3,435.8z M1974.3,868.2l-0.2-2l4.8-0.4l0.6,7
	C1976.9,873,1975.1,871.5,1974.3,868.2L1974.3,868.2z M2187.2,873.8c-0.2-1.7-0.9-2.4-2.6-2.2l-12,1.1l-0.2-2.4h1.1l28.4-2.4
	l0.2,2.4C2193.9,870.6,2188.9,871.9,2187.2,873.8z M2173,867.9c1.1,0.6,0.6,1.1,0,1.5C2172.5,869.1,2171.7,868.6,2173,867.9z
	 M2174.5,834.6l-15.9,1.3l-0.2-2.4l14.4-1.3l12.6-3.1c0.2,1.5,0.9,2,2.6,1.8c15-2.6,13.5-3.3,20.7-3.9c2.4-0.2,3.9,1.3,4.1,4.2
	L2174.5,834.6L2174.5,834.6z M2230.1,829.8c-8.9-0.9-9.4-1.7-15.7-1.1l-0.2-2l14.2-1.3l0.2,2C2227.1,827.6,2232.5,828,2230.1,829.8z
	 M2231.2,827.2l-0.2-2l7.8-0.7l0.2,2L2231.2,827.2z M2248.3,825.8l-0.2-2c1.3-0.2,3.1-1.1,5.5-3c3.9-0.4,5.9,2.2,6.3,5.2
	L2248.3,825.8L2248.3,825.8z M2270.3,823l-0.2-2.4l9.4-0.7l0.2,2.4L2270.3,823z M2283.4,821.9c-0.2-2.8,0.9-4.4,3.3-4.8l3.1,4.1
	c-0.2-1.3,0.4-2,1.5-2.2l2.4,4.4L2283.4,821.9L2283.4,821.9z M2465.1,800.5l0.2-0.2v-0.2C2465.3,800.1,2465.1,800.3,2465.1,800.5
	L2465.1,800.5z M2468.4,798.1c1.5-0.9,2.2-1.8-1.3-2.4c-1.7,1.8,1.8,2.4-1.8,2.6l0.2,1.7c0.4-0.4,1.3-0.9,2-1.5l-2,1.7v0.2l-3.9,5
	l7.8-2.8h0.9l-0.4-4.6L2468.4,798.1z M2481.9,808.6l-1.5,0.2l0.4,4.6l10.9-0.9C2491.5,809.5,2484.3,808.6,2481.9,808.6z"/>
</svg>
