<?xml version="1.0" encoding="utf-8"?>
<!-- Generator: Adobe Illustrator 22.1.0, SVG Export Plug-In . SVG Version: 6.00 Build 0)  -->
<svg version="1.1" id="Layer_2_1_" xmlns="http://www.w3.org/2000/svg" xmlns:xlink="http://www.w3.org/1999/xlink" x="0px" y="0px"
	 viewBox="0 0 2500 1500" style="enable-background:new 0 0 2500 1500;" xml:space="preserve">
<style type="text/css">
	.st0{fill:#00D8FF;}
	.st1{fill:none;stroke:#00D8FF;stroke-width:60;stroke-miterlimit:10;}
	.st2{fill:none;}
	.st3{font-family:'SegoeUI-Bold';}
	.st4{font-size:455.8907px;}
</style>
<ellipse transform="matrix(0.7071 -0.7071 0.7071 0.7071 -354.9981 648.6476)" class="st0" cx="605.5" cy="752.8" rx="106.4" ry="106.4"/>
<path class="st1" d="M605.5,536.4c142.9,0,275.6,20.5,375.7,54.9c120.6,41.5,194.7,104.4,194.7,161.4c0,59.4-78.6,126.2-208.1,169.1
	c-97.9,32.4-226.7,49.4-362.4,49.4c-139.1,0-270.8-15.9-369.8-49.7C110.5,878.8,35,811.1,35,752.8c0-56.5,70.8-119,189.7-160.4
	C325.2,557.4,461.2,536.4,605.5,536.4L605.5,536.4z"/>
<path class="st1" d="M417.1,645.3c71.4-123.8,155.5-228.5,235.3-298c96.2-83.7,187.8-116.5,237.1-88
	c51.4,29.7,70.1,131.1,42.6,264.8c-20.8,101-70.5,221.1-138.3,338.6c-69.5,120.5-149,226.6-227.8,295.5
	c-99.7,87.1-196,118.7-246.5,89.6c-49-28.2-67.7-120.8-44.2-244.5C295.2,898.5,345,770.3,417.1,645.3L417.1,645.3z"/>
<path class="st1" d="M417.3,862.8C345.7,739.2,297,614,276.6,510.1c-24.5-125.2-7.2-220.9,42.1-249.4
	c51.4-29.8,148.6,4.7,250.6,95.3c77.1,68.5,156.3,171.5,224.3,288.9c69.7,120.4,121.9,242.3,142.2,344.9
	c25.7,129.9,4.9,229.1-45.5,258.3c-48.9,28.3-138.4-1.7-233.9-83.8C575.9,1094.9,489.6,987.7,417.3,862.8L417.3,862.8z"/>
<rect x="1315.6" y="525.6" class="st2" width="1212" height="456.1"/>
<text transform="matrix(1 0 0 1 1315.6475 863.0483)" class="st0 st3 st4">React</text>
</svg>
