<?xml version="1.0" encoding="utf-8"?>
<!-- Generator: Adobe Illustrator 22.1.0, SVG Export Plug-In . SVG Version: 6.00 Build 0)  -->
<svg version="1.1" id="Layer_2_1_" xmlns="http://www.w3.org/2000/svg" xmlns:xlink="http://www.w3.org/1999/xlink" x="0px" y="0px"
	 viewBox="0 0 2500 1500" style="enable-background:new 0 0 2500 1500;" xml:space="preserve">
<style type="text/css">
	.st0{fill:#00D8FF;}
	.st1{fill:none;stroke:#00D8FF;stroke-width:144.7456;stroke-miterlimit:10;}
	.st2{fill:none;}
	.st3{font-family:'SegoeUI-Bold';}
	.st4{font-size:438.9501px;}
</style>
<ellipse transform="matrix(0.7071 -0.7071 0.7071 0.7071 -357.6168 679.9081)" class="st0" cx="641.9" cy="771.6" rx="102.5" ry="102.5"/>
<path class="st1" d="M641.9,563.3c137.6,0,265.4,19.7,361.8,52.9c116.1,40,187.5,100.6,187.5,155.4c0,57.2-75.7,121.6-200.3,162.8
	C896.6,965.7,772.5,982,641.9,982c-133.9,0-260.7-15.3-356-47.9C165.3,892.9,92.6,827.7,92.6,771.6c0-54.4,68.2-114.5,182.7-154.4
	C372,583.5,503,563.3,641.9,563.3L641.9,563.3z"/>
<path class="st1" d="M460.5,668.1C529.3,548.9,610.3,448,687.1,381.1c92.6-80.6,180.8-112.2,228.3-84.8
	c49.5,28.6,67.5,126.3,41,254.9c-20.1,97.3-67.9,212.9-133.1,326c-66.9,116-143.5,218.2-219.3,284.5
	c-96,83.9-188.8,114.2-237.3,86.2c-47.1-27.2-65.2-116.3-42.6-235.4C343.2,911.9,391.1,788.4,460.5,668.1L460.5,668.1z"/>
<path class="st1" d="M460.7,877.5C391.8,758.5,344.9,638,325.3,537.9c-23.6-120.5-6.9-212.7,40.6-240.1
	c49.5-28.7,143.1,4.6,241.3,91.8c74.3,65.9,150.5,165.1,216,278.2c67.1,115.9,117.4,233.3,136.9,332.1
	c24.8,125,4.7,220.6-43.8,248.7c-47.1,27.3-133.3-1.6-225.2-80.7C613.4,1101,530.3,997.8,460.7,877.5L460.7,877.5z"/>
<rect x="1325.7" y="552.8" class="st2" width="1166.9" height="439.1"/>
<text transform="matrix(1 0 0 1 1325.6841 877.7444)" class="st0 st3 st4">React</text>
</svg>
