<svg id="Layer_1" data-name="Layer 1" xmlns="http://www.w3.org/2000/svg" viewBox="0 0 2524 1967.61"><defs><style>.cls-1{fill:#f7a80d;}.cls-2{font-size:300px;font-family:Ubuntu-Medium, Ubuntu Medium;}.cls-3{letter-spacing:-0.02em;}.cls-4{letter-spacing:-0.02em;}</style></defs><title>aws</title><path class="cls-1" d="M729.4,1254.55l-229,98.38,212.1,90.71,246-90.71-229-98.38Zm-344.34,123-7.67,442.71L712.47,1967.8V1508.17L385.06,1377.52Zm688.67,0-302.82,115.3v433.47l302.82-123v-425.8ZM1435,.19,1204.37,98.58l213.69,90.7,246-90.7L1435,.19Zm-319.74,130.7V573.61l285.9,83,9.24-402.77-295.14-123Zm639.48,24.6-270.55,115.3v435l270.55-123V155.49ZM352,623.29,123,721.67l212.1,90.71,246-90.71L352,623.29ZM7.67,746.26,0,1189l335.08,147.57V876.91Zm688.67,0L393.52,861.56V1295l302.82-123ZM1089.86,607l-229,98.38L1072.94,796l246-90.7-229-98.38Zm-344.33,123-7.68,442.72,335.09,147.57V860.63Zm688.66,0-302.81,115.3V1278.7l302.81-123V729.93ZM2155.67.19l-229,98.38,212.11,90.71L2384.7,98.57,2155.67.19Zm-344.34,123-7.67,442.71,335.09,147.57V253.87Zm688.67,0-302.82,115.3V671.94L2500,549Z" transform="translate(0 -0.19)"/><text class="cls-2" transform="translate(1174.72 1624.51)"><tspan class="cls-3">A</tspan><tspan x="200.4" y="0">WS </tspan><tspan class="cls-4" x="713.69" y="0">E</tspan><tspan x="881.99" y="0">C2</tspan></text></svg>