<?xml version="1.0" encoding="utf-8"?>
<!-- Generator: Adobe Illustrator 16.0.0, SVG Export Plug-In . SVG Version: 6.00 Build 0)  -->
<!DOCTYPE svg PUBLIC "-//W3C//DTD SVG 1.1//EN" "http://www.w3.org/Graphics/SVG/1.1/DTD/svg11.dtd">
<svg version="1.1" id="Layer_1" xmlns="http://www.w3.org/2000/svg" xmlns:xlink="http://www.w3.org/1999/xlink" x="0px" y="0px"
	 width="87.104px" height="90.709px" viewBox="239.934 238.11 87.104 90.709" enable-background="new 239.934 238.11 87.104 90.709"
	 xml:space="preserve">
<g id="mail">
	<path d="M324.166,260.241c-1.915-4.467-4.642-8.343-8.179-11.626c-3.538-3.283-7.797-5.854-12.774-7.714
		c-4.979-1.86-10.551-2.79-16.714-2.79c-4.451,0-8.691,0.556-12.721,1.668c-4.03,1.113-7.769,2.69-11.215,4.733
		c-3.447,2.043-6.574,4.514-9.383,7.413c-2.809,2.899-5.198,6.137-7.167,9.71c-1.97,3.576-3.484,7.45-4.541,11.625
		c-1.058,4.178-1.587,8.545-1.587,13.104c0,6.639,1.085,12.583,3.255,17.835c2.169,5.253,5.308,9.703,9.411,13.35
		s9.1,6.438,14.991,8.37c5.89,1.933,12.574,2.899,20.051,2.899c4.268,0,8.18-0.32,11.735-0.957
		c3.556-0.639,7.048-1.688,10.477-3.146l-2.789-6.729c-2.736,1.167-5.71,2.052-8.919,2.653s-6.748,0.903-10.613,0.903
		c-6.274,0-11.881-0.785-16.823-2.353c-4.943-1.568-9.128-3.858-12.556-6.866c-3.429-3.009-6.055-6.692-7.878-11.051
		c-1.825-4.358-2.735-9.328-2.735-14.909c0-5.725,0.965-11.068,2.899-16.029c1.933-4.959,4.624-9.282,8.07-12.966
		c3.447-3.683,7.559-6.583,12.336-8.699c4.778-2.114,10.012-3.173,15.702-3.173c4.74,0,9.127,0.739,13.157,2.215
		c4.029,1.477,7.495,3.52,10.395,6.127c2.899,2.608,5.171,5.699,6.813,9.273c1.642,3.575,2.462,7.478,2.462,11.708
		c0,4.049-0.484,7.687-1.45,10.914c-0.967,3.229-2.271,5.955-3.911,8.18c-1.642,2.226-3.557,3.931-5.745,5.115
		c-2.188,1.186-4.504,1.778-6.947,1.778c-1.059,0-1.824-0.291-2.298-0.874c-0.474-0.584-0.712-1.404-0.712-2.463
		c0-0.839,0.119-1.851,0.356-3.036c0.237-1.185,0.52-2.74,0.848-4.308l7.058-31.582h-8.698l-1.04,4.665
		c-1.752-1.896-3.74-3.249-5.964-4.233c-2.226-0.984-4.833-1.433-7.824-1.433c-3.392,0-6.602,0.825-9.629,2.43
		c-3.028,1.605-5.681,3.833-7.96,6.659c-2.28,2.827-4.076,6.179-5.389,10.044c-1.313,3.867-1.97,8.065-1.97,12.587
		c0,3.063,0.419,5.792,1.259,8.18c0.839,2.389,2.005,4.414,3.501,6.074c1.495,1.66,3.291,2.919,5.389,3.774
		c2.097,0.858,4.385,1.286,6.866,1.286c2.917,0,5.69-0.674,8.316-2.024c2.626-1.349,4.979-3.264,7.058-5.744
		c0.109,1.094,0.419,2.116,0.93,3.064c0.51,0.948,1.195,1.77,2.052,2.462c0.855,0.693,1.851,1.24,2.981,1.642
		c1.13,0.402,2.353,0.602,3.666,0.602c3.866,0,7.449-0.766,10.75-2.298c3.302-1.532,6.155-3.747,8.563-6.647
		c2.406-2.899,4.284-6.445,5.635-10.641c1.349-4.193,2.024-8.953,2.024-14.279C327.039,269.532,326.081,264.709,324.166,260.241z
		 M291.313,286.365c-0.511,2.225-1.24,4.222-2.188,5.989c-0.949,1.771-2.052,3.283-3.31,4.542c-1.26,1.258-2.654,2.225-4.186,2.898
		c-1.532,0.675-3.118,1.012-4.76,1.012c-6.274,0-9.41-3.956-9.41-11.872c0-3.246,0.428-6.309,1.285-9.191
		c0.856-2.88,1.998-5.397,3.42-7.55c1.422-2.152,3.072-3.857,4.951-5.115c1.877-1.258,3.838-1.888,5.881-1.888
		c2.771,0,5.123,0.512,7.058,1.532c1.933,1.021,3.537,2.262,4.813,3.72L291.313,286.365z"/>
</g>
<g id="Слой_1">
</g>
</svg>
